<svg width="96" height="120" viewBox="0 0 96 120" fill="none" xmlns="http://www.w3.org/2000/svg">
<g filter="url(#filter0_d)">
<rect x="6" y="6" width="84" height="108" rx="10" fill="white"/>
</g>
<path d="M79.28 81.48H16.8C14.16 81.48 12 79.32 12 76.68V15.8C12 13.16 14.16 11 16.8 11H79.28C81.92 11 84.08 13.16 84.08 15.8V76.64C84.08 79.28 81.92 81.48 79.28 81.48Z" stroke="black" stroke-miterlimit="10"/>
<path d="M48.16 37.76C54.9641 37.76 60.48 32.2441 60.48 25.44C60.48 18.6358 54.9641 13.12 48.16 13.12C41.3558 13.12 35.84 18.6358 35.84 25.44C35.84 32.2441 41.3558 37.76 48.16 37.76Z" fill="#BD1218"/>
<path d="M51.8 79.32H47.32C39.48 79.32 33 79.72 33 71.88V53.48C33 45.64 34.24 39 42.16 39H55.04C62.88 39 63.32 44.72 63.32 52.56L63.24 72C63.32 79.92 59.6 79.32 51.8 79.32Z" fill="#BD1218"/>
<path d="M45.88 41.2H50.44C51.64 41.2 52.64 40.2 52.64 39H43.68C43.68 40.2 44.68 41.2 45.88 41.2Z" fill="#EA5B13"/>
<path d="M53.16 60.08L49.24 40.12L48.12 39.24L47 40.12L43.08 60.08C43.08 60.08 43.04 60.96 43.76 61.36L48.08 64.96L52.4 61.36C53.24 60.96 53.16 60.08 53.16 60.08Z" fill="#EA5B13" stroke="#EA5B13" stroke-miterlimit="10" stroke-linecap="round" stroke-linejoin="round"/>
<path d="M21.4047 96.096C20.5647 96.096 19.8047 95.912 19.1247 95.544C18.4527 95.168 17.9247 94.656 17.5407 94.008C17.1567 93.352 16.9647 92.616 16.9647 91.8C16.9647 90.984 17.1567 90.252 17.5407 89.604C17.9247 88.948 18.4567 88.436 19.1367 88.068C19.8167 87.692 20.5767 87.504 21.4167 87.504C22.0727 87.504 22.6727 87.616 23.2167 87.84C23.7607 88.056 24.2247 88.38 24.6087 88.812L23.8287 89.568C23.1967 88.904 22.4087 88.572 21.4647 88.572C20.8407 88.572 20.2767 88.712 19.7727 88.992C19.2687 89.272 18.8727 89.66 18.5847 90.156C18.3047 90.644 18.1647 91.192 18.1647 91.8C18.1647 92.408 18.3047 92.96 18.5847 93.456C18.8727 93.944 19.2687 94.328 19.7727 94.608C20.2767 94.888 20.8407 95.028 21.4647 95.028C22.4007 95.028 23.1887 94.692 23.8287 94.02L24.6087 94.776C24.2247 95.208 23.7567 95.536 23.2047 95.76C22.6607 95.984 22.0607 96.096 21.4047 96.096ZM28.3865 89.58C29.2665 89.58 29.9385 89.796 30.4025 90.228C30.8745 90.66 31.1105 91.304 31.1105 92.16V96H30.0185V95.16C29.8265 95.456 29.5505 95.684 29.1905 95.844C28.8385 95.996 28.4185 96.072 27.9305 96.072C27.2185 96.072 26.6465 95.9 26.2145 95.556C25.7905 95.212 25.5785 94.76 25.5785 94.2C25.5785 93.64 25.7825 93.192 26.1905 92.856C26.5985 92.512 27.2465 92.34 28.1345 92.34H29.9585V92.112C29.9585 91.616 29.8145 91.236 29.5265 90.972C29.2385 90.708 28.8145 90.576 28.2545 90.576C27.8785 90.576 27.5105 90.64 27.1505 90.768C26.7905 90.888 26.4865 91.052 26.2385 91.26L25.7585 90.396C26.0865 90.132 26.4785 89.932 26.9345 89.796C27.3905 89.652 27.8745 89.58 28.3865 89.58ZM28.1225 95.184C28.5625 95.184 28.9425 95.088 29.2625 94.896C29.5825 94.696 29.8145 94.416 29.9585 94.056V93.168H28.1825C27.2065 93.168 26.7185 93.496 26.7185 94.152C26.7185 94.472 26.8425 94.724 27.0905 94.908C27.3385 95.092 27.6825 95.184 28.1225 95.184ZM36.6384 89.58C37.4464 89.58 38.0864 89.816 38.5584 90.288C39.0384 90.752 39.2784 91.436 39.2784 92.34V96H38.1264V92.472C38.1264 91.856 37.9784 91.392 37.6824 91.08C37.3864 90.768 36.9624 90.612 36.4104 90.612C35.7864 90.612 35.2944 90.796 34.9344 91.164C34.5744 91.524 34.3944 92.044 34.3944 92.724V96H33.2424V89.64H34.3464V90.6C34.5784 90.272 34.8904 90.02 35.2824 89.844C35.6824 89.668 36.1344 89.58 36.6384 89.58ZM47.4455 87.096V96H46.3415V94.992C46.0855 95.344 45.7615 95.612 45.3695 95.796C44.9775 95.98 44.5455 96.072 44.0735 96.072C43.4575 96.072 42.9055 95.936 42.4175 95.664C41.9295 95.392 41.5455 95.012 41.2655 94.524C40.9935 94.028 40.8575 93.46 40.8575 92.82C40.8575 92.18 40.9935 91.616 41.2655 91.128C41.5455 90.64 41.9295 90.26 42.4175 89.988C42.9055 89.716 43.4575 89.58 44.0735 89.58C44.5295 89.58 44.9495 89.668 45.3335 89.844C45.7175 90.012 46.0375 90.264 46.2935 90.6V87.096H47.4455ZM44.1695 95.064C44.5695 95.064 44.9335 94.972 45.2615 94.788C45.5895 94.596 45.8455 94.332 46.0295 93.996C46.2135 93.652 46.3055 93.26 46.3055 92.82C46.3055 92.38 46.2135 91.992 46.0295 91.656C45.8455 91.312 45.5895 91.048 45.2615 90.864C44.9335 90.68 44.5695 90.588 44.1695 90.588C43.7615 90.588 43.3935 90.68 43.0655 90.864C42.7455 91.048 42.4895 91.312 42.2975 91.656C42.1135 91.992 42.0215 92.38 42.0215 92.82C42.0215 93.26 42.1135 93.652 42.2975 93.996C42.4895 94.332 42.7455 94.596 43.0655 94.788C43.3935 94.972 43.7615 95.064 44.1695 95.064ZM49.6252 89.64H50.7772V96H49.6252V89.64ZM50.2012 88.416C49.9772 88.416 49.7892 88.344 49.6372 88.2C49.4932 88.056 49.4212 87.88 49.4212 87.672C49.4212 87.464 49.4932 87.288 49.6372 87.144C49.7892 86.992 49.9772 86.916 50.2012 86.916C50.4252 86.916 50.6092 86.988 50.7532 87.132C50.9052 87.268 50.9812 87.44 50.9812 87.648C50.9812 87.864 50.9052 88.048 50.7532 88.2C50.6092 88.344 50.4252 88.416 50.2012 88.416ZM58.9768 87.096V96H57.8728V94.992C57.6168 95.344 57.2928 95.612 56.9008 95.796C56.5088 95.98 56.0768 96.072 55.6048 96.072C54.9888 96.072 54.4368 95.936 53.9488 95.664C53.4608 95.392 53.0768 95.012 52.7968 94.524C52.5248 94.028 52.3888 93.46 52.3888 92.82C52.3888 92.18 52.5248 91.616 52.7968 91.128C53.0768 90.64 53.4608 90.26 53.9488 89.988C54.4368 89.716 54.9888 89.58 55.6048 89.58C56.0608 89.58 56.4808 89.668 56.8648 89.844C57.2488 90.012 57.5688 90.264 57.8248 90.6V87.096H58.9768ZM55.7008 95.064C56.1008 95.064 56.4648 94.972 56.7928 94.788C57.1208 94.596 57.3768 94.332 57.5608 93.996C57.7448 93.652 57.8368 93.26 57.8368 92.82C57.8368 92.38 57.7448 91.992 57.5608 91.656C57.3768 91.312 57.1208 91.048 56.7928 90.864C56.4648 90.68 56.1008 90.588 55.7008 90.588C55.2928 90.588 54.9248 90.68 54.5968 90.864C54.2768 91.048 54.0208 91.312 53.8288 91.656C53.6448 91.992 53.5528 92.38 53.5528 92.82C53.5528 93.26 53.6448 93.652 53.8288 93.996C54.0208 94.332 54.2768 94.596 54.5968 94.788C54.9248 94.972 55.2928 95.064 55.7008 95.064ZM63.4725 89.58C64.3525 89.58 65.0245 89.796 65.4885 90.228C65.9605 90.66 66.1965 91.304 66.1965 92.16V96H65.1045V95.16C64.9125 95.456 64.6365 95.684 64.2765 95.844C63.9245 95.996 63.5045 96.072 63.0165 96.072C62.3045 96.072 61.7325 95.9 61.3005 95.556C60.8765 95.212 60.6645 94.76 60.6645 94.2C60.6645 93.64 60.8685 93.192 61.2765 92.856C61.6845 92.512 62.3325 92.34 63.2205 92.34H65.0445V92.112C65.0445 91.616 64.9005 91.236 64.6125 90.972C64.3245 90.708 63.9005 90.576 63.3405 90.576C62.9645 90.576 62.5965 90.64 62.2365 90.768C61.8765 90.888 61.5725 91.052 61.3245 91.26L60.8445 90.396C61.1725 90.132 61.5645 89.932 62.0205 89.796C62.4765 89.652 62.9605 89.58 63.4725 89.58ZM63.2085 95.184C63.6485 95.184 64.0285 95.088 64.3485 94.896C64.6685 94.696 64.9005 94.416 65.0445 94.056V93.168H63.2685C62.2925 93.168 61.8045 93.496 61.8045 94.152C61.8045 94.472 61.9285 94.724 62.1765 94.908C62.4245 95.092 62.7685 95.184 63.2085 95.184ZM71.9043 95.628C71.7363 95.772 71.5283 95.884 71.2803 95.964C71.0323 96.036 70.7763 96.072 70.5123 96.072C69.8723 96.072 69.3763 95.9 69.0243 95.556C68.6723 95.212 68.4963 94.72 68.4963 94.08V90.588H67.4163V89.64H68.4963V88.248H69.6483V89.64H71.4723V90.588H69.6483V94.032C69.6483 94.376 69.7323 94.64 69.9003 94.824C70.0763 95.008 70.3243 95.1 70.6443 95.1C70.9963 95.1 71.2963 95 71.5443 94.8L71.9043 95.628ZM75.8101 96.072C75.1781 96.072 74.6101 95.932 74.1061 95.652C73.6021 95.372 73.2061 94.988 72.9181 94.5C72.6381 94.004 72.4981 93.444 72.4981 92.82C72.4981 92.196 72.6381 91.64 72.9181 91.152C73.2061 90.656 73.6021 90.272 74.1061 90C74.6101 89.72 75.1781 89.58 75.8101 89.58C76.4421 89.58 77.0061 89.72 77.5021 90C78.0061 90.272 78.3981 90.656 78.6781 91.152C78.9661 91.64 79.1101 92.196 79.1101 92.82C79.1101 93.444 78.9661 94.004 78.6781 94.5C78.3981 94.988 78.0061 95.372 77.5021 95.652C77.0061 95.932 76.4421 96.072 75.8101 96.072ZM75.8101 95.064C76.2181 95.064 76.5821 94.972 76.9021 94.788C77.2301 94.596 77.4861 94.332 77.6701 93.996C77.8541 93.652 77.9461 93.26 77.9461 92.82C77.9461 92.38 77.8541 91.992 77.6701 91.656C77.4861 91.312 77.2301 91.048 76.9021 90.864C76.5821 90.68 76.2181 90.588 75.8101 90.588C75.4021 90.588 75.0341 90.68 74.7061 90.864C74.3861 91.048 74.1301 91.312 73.9381 91.656C73.7541 91.992 73.6621 92.38 73.6621 92.82C73.6621 93.26 73.7541 93.652 73.9381 93.996C74.1301 94.332 74.3861 94.596 74.7061 94.788C75.0341 94.972 75.4021 95.064 75.8101 95.064Z" fill="black"/>
<defs>
<filter id="filter0_d" x="0" y="0" width="96" height="120" filterUnits="userSpaceOnUse" color-interpolation-filters="sRGB">
<feFlood flood-opacity="0" result="BackgroundImageFix"/>
<feColorMatrix in="SourceAlpha" type="matrix" values="0 0 0 0 0 0 0 0 0 0 0 0 0 0 0 0 0 0 127 0"/>
<feOffset/>
<feGaussianBlur stdDeviation="3"/>
<feColorMatrix type="matrix" values="0 0 0 0 0 0 0 0 0 0 0 0 0 0 0 0 0 0 0.25 0"/>
<feBlend mode="normal" in2="BackgroundImageFix" result="effect1_dropShadow"/>
<feBlend mode="normal" in="SourceGraphic" in2="effect1_dropShadow" result="shape"/>
</filter>
</defs>
</svg>
