<svg width="96" height="120" viewBox="0 0 96 120" fill="none" xmlns="http://www.w3.org/2000/svg">
<g filter="url(#filter0_d)">
<rect x="6" y="6" width="84" height="108" rx="10" fill="white"/>
</g>
<path d="M22.6998 98.956V100H16.6038V91.6H22.5318V92.644H17.8038V95.224H22.0158V96.244H17.8038V98.956H22.6998ZM30.3928 91.096V100H29.2888V98.992C29.0328 99.344 28.7088 99.612 28.3168 99.796C27.9248 99.98 27.4928 100.072 27.0208 100.072C26.4048 100.072 25.8528 99.936 25.3648 99.664C24.8768 99.392 24.4928 99.012 24.2128 98.524C23.9408 98.028 23.8048 97.46 23.8048 96.82C23.8048 96.18 23.9408 95.616 24.2128 95.128C24.4928 94.64 24.8768 94.26 25.3648 93.988C25.8528 93.716 26.4048 93.58 27.0208 93.58C27.4768 93.58 27.8968 93.668 28.2808 93.844C28.6648 94.012 28.9848 94.264 29.2408 94.6V91.096H30.3928ZM27.1168 99.064C27.5168 99.064 27.8808 98.972 28.2088 98.788C28.5368 98.596 28.7928 98.332 28.9768 97.996C29.1608 97.652 29.2528 97.26 29.2528 96.82C29.2528 96.38 29.1608 95.992 28.9768 95.656C28.7928 95.312 28.5368 95.048 28.2088 94.864C27.8808 94.68 27.5168 94.588 27.1168 94.588C26.7088 94.588 26.3408 94.68 26.0128 94.864C25.6928 95.048 25.4368 95.312 25.2448 95.656C25.0608 95.992 24.9688 96.38 24.9688 96.82C24.9688 97.26 25.0608 97.652 25.2448 97.996C25.4368 98.332 25.6928 98.596 26.0128 98.788C26.3408 98.972 26.7088 99.064 27.1168 99.064ZM38.5005 93.64V100H37.4085V99.04C37.1765 99.368 36.8685 99.624 36.4845 99.808C36.1085 99.984 35.6965 100.072 35.2485 100.072C34.4005 100.072 33.7325 99.84 33.2445 99.376C32.7565 98.904 32.5125 98.212 32.5125 97.3V93.64H33.6645V97.168C33.6645 97.784 33.8125 98.252 34.1085 98.572C34.4045 98.884 34.8285 99.04 35.3805 99.04C35.9885 99.04 36.4685 98.856 36.8205 98.488C37.1725 98.12 37.3485 97.6 37.3485 96.928V93.64H38.5005ZM43.4656 100.072C42.8176 100.072 42.2376 99.932 41.7256 99.652C41.2216 99.372 40.8256 98.988 40.5376 98.5C40.2496 98.004 40.1056 97.444 40.1056 96.82C40.1056 96.196 40.2496 95.64 40.5376 95.152C40.8256 94.656 41.2216 94.272 41.7256 94C42.2376 93.72 42.8176 93.58 43.4656 93.58C44.0416 93.58 44.5536 93.696 45.0016 93.928C45.4576 94.16 45.8096 94.496 46.0576 94.936L45.1816 95.5C44.9816 95.196 44.7336 94.968 44.4376 94.816C44.1416 94.664 43.8136 94.588 43.4536 94.588C43.0376 94.588 42.6616 94.68 42.3256 94.864C41.9976 95.048 41.7376 95.312 41.5456 95.656C41.3616 95.992 41.2696 96.38 41.2696 96.82C41.2696 97.268 41.3616 97.664 41.5456 98.008C41.7376 98.344 41.9976 98.604 42.3256 98.788C42.6616 98.972 43.0376 99.064 43.4536 99.064C43.8136 99.064 44.1416 98.988 44.4376 98.836C44.7336 98.684 44.9816 98.456 45.1816 98.152L46.0576 98.704C45.8096 99.144 45.4576 99.484 45.0016 99.724C44.5536 99.956 44.0416 100.072 43.4656 100.072ZM49.865 93.58C50.745 93.58 51.417 93.796 51.881 94.228C52.353 94.66 52.589 95.304 52.589 96.16V100H51.497V99.16C51.305 99.456 51.029 99.684 50.669 99.844C50.317 99.996 49.897 100.072 49.409 100.072C48.697 100.072 48.125 99.9 47.693 99.556C47.269 99.212 47.057 98.76 47.057 98.2C47.057 97.64 47.261 97.192 47.669 96.856C48.077 96.512 48.725 96.34 49.613 96.34H51.437V96.112C51.437 95.616 51.293 95.236 51.005 94.972C50.717 94.708 50.293 94.576 49.733 94.576C49.357 94.576 48.989 94.64 48.629 94.768C48.269 94.888 47.965 95.052 47.717 95.26L47.237 94.396C47.565 94.132 47.957 93.932 48.413 93.796C48.869 93.652 49.353 93.58 49.865 93.58ZM49.601 99.184C50.041 99.184 50.421 99.088 50.741 98.896C51.061 98.696 51.293 98.416 51.437 98.056V97.168H49.661C48.685 97.168 48.197 97.496 48.197 98.152C48.197 98.472 48.321 98.724 48.569 98.908C48.817 99.092 49.161 99.184 49.601 99.184ZM57.5281 100.072C56.8801 100.072 56.3001 99.932 55.7881 99.652C55.2841 99.372 54.8881 98.988 54.6001 98.5C54.3121 98.004 54.1681 97.444 54.1681 96.82C54.1681 96.196 54.3121 95.64 54.6001 95.152C54.8881 94.656 55.2841 94.272 55.7881 94C56.3001 93.72 56.8801 93.58 57.5281 93.58C58.1041 93.58 58.6161 93.696 59.0641 93.928C59.5201 94.16 59.8721 94.496 60.1201 94.936L59.2441 95.5C59.0441 95.196 58.7961 94.968 58.5001 94.816C58.2041 94.664 57.8761 94.588 57.5161 94.588C57.1001 94.588 56.7241 94.68 56.3881 94.864C56.0601 95.048 55.8001 95.312 55.6081 95.656C55.4241 95.992 55.3321 96.38 55.3321 96.82C55.3321 97.268 55.4241 97.664 55.6081 98.008C55.8001 98.344 56.0601 98.604 56.3881 98.788C56.7241 98.972 57.1001 99.064 57.5161 99.064C57.8761 99.064 58.2041 98.988 58.5001 98.836C58.7961 98.684 59.0441 98.456 59.2441 98.152L60.1201 98.704C59.8721 99.144 59.5201 99.484 59.0641 99.724C58.6161 99.956 58.1041 100.072 57.5281 100.072ZM61.6115 93.64H62.7635V100H61.6115V93.64ZM62.1875 92.416C61.9635 92.416 61.7755 92.344 61.6235 92.2C61.4795 92.056 61.4075 91.88 61.4075 91.672C61.4075 91.464 61.4795 91.288 61.6235 91.144C61.7755 90.992 61.9635 90.916 62.1875 90.916C62.4115 90.916 62.5955 90.988 62.7395 91.132C62.8915 91.268 62.9675 91.44 62.9675 91.648C62.9675 91.864 62.8915 92.048 62.7395 92.2C62.5955 92.344 62.4115 92.416 62.1875 92.416ZM67.6871 100.072C67.0551 100.072 66.4871 99.932 65.9831 99.652C65.4791 99.372 65.0831 98.988 64.7951 98.5C64.5151 98.004 64.3751 97.444 64.3751 96.82C64.3751 96.196 64.5151 95.64 64.7951 95.152C65.0831 94.656 65.4791 94.272 65.9831 94C66.4871 93.72 67.0551 93.58 67.6871 93.58C68.3191 93.58 68.8831 93.72 69.3791 94C69.8831 94.272 70.2751 94.656 70.5551 95.152C70.8431 95.64 70.9871 96.196 70.9871 96.82C70.9871 97.444 70.8431 98.004 70.5551 98.5C70.2751 98.988 69.8831 99.372 69.3791 99.652C68.8831 99.932 68.3191 100.072 67.6871 100.072ZM67.6871 99.064C68.0951 99.064 68.4591 98.972 68.7791 98.788C69.1071 98.596 69.3631 98.332 69.5471 97.996C69.7311 97.652 69.8231 97.26 69.8231 96.82C69.8231 96.38 69.7311 95.992 69.5471 95.656C69.3631 95.312 69.1071 95.048 68.7791 94.864C68.4591 94.68 68.0951 94.588 67.6871 94.588C67.2791 94.588 66.9111 94.68 66.5831 94.864C66.2631 95.048 66.0071 95.312 65.8151 95.656C65.6311 95.992 65.5391 96.38 65.5391 96.82C65.5391 97.26 65.6311 97.652 65.8151 97.996C66.0071 98.332 66.2631 98.596 66.5831 98.788C66.9111 98.972 67.2791 99.064 67.6871 99.064ZM68.4071 91.156H69.8711L67.8551 92.716H66.7751L68.4071 91.156ZM75.9763 93.58C76.7843 93.58 77.4243 93.816 77.8963 94.288C78.3763 94.752 78.6163 95.436 78.6163 96.34V100H77.4643V96.472C77.4643 95.856 77.3163 95.392 77.0203 95.08C76.7243 94.768 76.3003 94.612 75.7483 94.612C75.1243 94.612 74.6323 94.796 74.2723 95.164C73.9123 95.524 73.7323 96.044 73.7323 96.724V100H72.5803V93.64H73.6843V94.6C73.9163 94.272 74.2283 94.02 74.6203 93.844C75.0203 93.668 75.4723 93.58 75.9763 93.58Z" fill="black"/>
<path d="M79.24 81.24H16.76C14.12 81.24 11.96 79.08 11.96 76.44V15.56C11.96 12.92 14.12 10.76 16.76 10.76H79.28C81.92 10.76 84.08 12.92 84.08 15.56V76.44C84.04 79.08 81.88 81.24 79.24 81.24Z" stroke="black" stroke-miterlimit="10"/>
<path d="M27.6801 32.12V66.04H27.8801C29.3601 70.12 38.5201 73.24 49.6401 73.24C60.7601 73.24 69.9201 70.12 71.4001 66.04H71.6001V32.12H27.6801Z" fill="#BD1218"/>
<path d="M44.24 59.36L22.68 44.72C18.36 41.64 19.08 37.24 22.68 34.24L43.52 19.84C46.88 17.12 50.56 17.44 54 19.84L75.56 34.96C79.48 37.6 79.04 42.88 75.56 45.44L54.72 59.36C50.52 62.04 47.92 62.12 44.24 59.36Z" fill="#BD1218" stroke="white" stroke-width="2" stroke-miterlimit="10"/>
<path d="M48.0001 38L25.5601 39.68C25.5601 39.68 19.4801 39.36 19.7201 44.92C19.9601 50.48 19.7201 61.4 19.7201 61.4" stroke="#EA5B13" stroke-width="2" stroke-miterlimit="10" stroke-linecap="round" stroke-linejoin="round"/>
<path d="M19.84 57.24C21.055 57.24 22.04 56.255 22.04 55.04C22.04 53.825 21.055 52.84 19.84 52.84C18.625 52.84 17.64 53.825 17.64 55.04C17.64 56.255 18.625 57.24 19.84 57.24Z" fill="#EA5B13"/>
<path d="M19.72 66.36C17.52 66.36 15.4 65.64 15.72 63.48L16.2 60C17.12 56.84 17.52 57.16 19.72 57.16C21.92 57.16 22.04 56.56 22.84 59.76L23.76 63.48C23.76 65.68 21.92 66.36 19.72 66.36Z" fill="#EA5B13"/>
<defs>
<filter id="filter0_d" x="0" y="0" width="96" height="120" filterUnits="userSpaceOnUse" color-interpolation-filters="sRGB">
<feFlood flood-opacity="0" result="BackgroundImageFix"/>
<feColorMatrix in="SourceAlpha" type="matrix" values="0 0 0 0 0 0 0 0 0 0 0 0 0 0 0 0 0 0 127 0"/>
<feOffset/>
<feGaussianBlur stdDeviation="3"/>
<feColorMatrix type="matrix" values="0 0 0 0 0 0 0 0 0 0 0 0 0 0 0 0 0 0 0.25 0"/>
<feBlend mode="normal" in2="BackgroundImageFix" result="effect1_dropShadow"/>
<feBlend mode="normal" in="SourceGraphic" in2="effect1_dropShadow" result="shape"/>
</filter>
</defs>
</svg>
