<svg width="43" height="33" viewBox="0 0 43 33" fill="none" xmlns="http://www.w3.org/2000/svg">
<path d="M1.1413 13.4022C1.1413 13.3043 1.1087 13.2065 1.04348 13.1413C0.358696 12.4565 0 11.5761 0 10.6304V3.58696C0 1.59783 1.59783 0 3.58696 0H36.2935C38.2826 0 39.8805 1.59783 39.8805 3.58696V10.6304C39.8805 12.6196 38.2826 14.2174 36.2935 14.2174H8.34783C8.28261 14.2174 8.2174 14.25 8.15218 14.2826L0.293479 20.1848L1.1413 13.4022Z" fill="white"/>
<path d="M15.75 28.5H36.3261C36.3914 28.5 36.4566 28.5326 36.5218 28.5652L42.424 33L41.7392 27.4891C41.7392 27.3913 41.7392 27.2935 41.8044 27.2283C42.3588 26.5761 42.6522 25.7609 42.6522 24.9131V18C42.6522 16.3696 41.5761 15.0326 40.1088 14.5761C39.6848 16.2718 38.1522 17.5435 36.3261 17.5435H12.1957C12.1631 17.7065 12.1631 17.8696 12.1631 18V24.8805C12.1631 26.8696 13.7609 28.5 15.75 28.5Z" fill="white"/>
</svg>
