<svg width="42" height="38" viewBox="0 0 42 38" fill="none" xmlns="http://www.w3.org/2000/svg">
<path d="M40.467 11.286L22.281 1.406C21.882 1.178 21.42 1.083 20.979 1.102C20.538 1.083 20.097 1.178 19.677 1.406L1.49102 11.286C0.378023 11.894 2.3365e-05 13.224 0.672024 14.25C1.34402 15.257 2.81402 15.599 3.94802 14.991L21 5.738L38.031 14.991C39.144 15.599 40.635 15.276 41.307 14.25C41.958 13.224 41.601 11.894 40.467 11.286Z" fill="white"/>
<path d="M35.448 15.675L21 7.828L6.552 15.675H6.636C6.615 15.827 6.594 15.96 6.594 16.112V34.238C6.594 35.701 7.917 36.898 9.534 36.898H16.065V25.023C16.065 23.56 17.388 22.363 19.005 22.363H23.037C24.654 22.363 25.977 23.56 25.977 25.023V36.898H32.508C34.125 36.898 35.448 35.701 35.448 34.238V16.112C35.448 15.96 35.427 15.808 35.406 15.675H35.448Z" fill="white"/>
</svg>
