<svg width="96" height="120" viewBox="0 0 96 120" fill="none" xmlns="http://www.w3.org/2000/svg">
<g filter="url(#filter0_d)">
<rect x="6" y="6" width="84" height="108" rx="10" fill="white"/>
</g>
<g clip-path="url(#clip0)">
<path d="M79.44 81.24H16.96C14.32 81.24 12.16 79.08 12.16 76.44V15.6C12.16 12.96 14.32 10.8 16.96 10.8H79.44C82.08 10.8 84.24 12.96 84.24 15.6V76.44C84.24 79.08 82.08 81.24 79.44 81.24Z" stroke="black" stroke-miterlimit="10"/>
<path d="M50.12 63.24C49.96 63.24 49.92 63.24 49.84 63.24C49.48 63.24 49.08 63.12 48.72 62.96C48.48 62.88 48.36 62.76 48.36 62.76C48.2 62.68 48.08 62.56 47.92 62.44C47.52 62.16 47 61.72 46.4 61.16C42.36 57.68 32.48 48.92 28.44 42.64C28.04 42.08 27.64 41.44 27.36 40.72C26.8 39.6 26.56 38.64 26.56 37.8C26.2 35.04 26.84 32 28.4 28.76C30.4 24.6 34.08 22.16 38.72 22C43.24 21.8 48.04 23.88 49.72 26.72C49.84 26.92 50.04 27.12 50.16 27.2C50.16 27.16 50.28 27.04 50.48 26.76C52.16 23.92 57 21.84 61.48 22.04C66.12 22.24 69.76 24.64 71.8 28.8C73.36 32.04 74 35.08 73.64 37.84C73.68 38.68 73.4 39.64 72.84 40.8C72.56 41.48 72.16 42.12 71.72 42.72C67.68 48.96 57.8 57.72 53.76 61.2C53.16 61.76 52.64 62.16 52.24 62.48C52.08 62.6 51.96 62.68 51.84 62.76C51.8 62.76 51.68 62.88 51.44 62.96C51.08 63.12 50.68 63.2 50.32 63.24C50.24 63.24 50.2 63.24 50.12 63.24ZM49.4 61.08C49.4 61.08 49.48 61.12 49.56 61.16C49.72 61.24 49.88 61.28 50 61.28L50.08 62.28L50.12 61.28C50.36 61.28 50.48 61.24 50.64 61.16C50.76 61.12 50.8 61.08 50.84 61.08C50.88 61.04 51 60.96 51.08 60.88C51.44 60.6 51.88 60.24 52.48 59.72C55.6 57.04 66.08 47.8 70.12 41.56C70.52 41.04 70.8 40.52 71.04 39.92C71.6 38.76 71.68 38.12 71.68 37.76C71.68 37.72 71.68 37.64 71.68 37.6C72 35.2 71.44 32.52 70.04 29.6C67.88 25.12 64.16 24.04 61.4 23.92C57.16 23.72 53.32 25.72 52.16 27.68C51.48 28.88 50.68 29.12 50.16 29.12C48.92 29.12 48.16 27.88 48.04 27.64C46.92 25.72 43.04 23.72 38.84 23.92C36.08 24.04 32.36 25.12 30.2 29.6C28.8 32.52 28.24 35.2 28.56 37.6C28.56 37.64 28.56 37.68 28.56 37.72C28.56 38.12 28.64 38.8 29.16 39.88C29.44 40.48 29.72 41.04 30.08 41.48C34.04 47.6 43.76 56.24 47.72 59.64C48.32 60.16 48.76 60.56 49.12 60.84C49.2 60.96 49.32 61.04 49.4 61.08Z" fill="#BD1218"/>
<path d="M50.6 47.6799C50.6 47.6799 52.24 49.6799 52.56 47.6799L54.2 53.1599L53.36 59.88L44.5601 54.8799L50.6 47.6799Z" fill="#EA5B13"/>
<path d="M56.1201 47.2C56.1201 47.2 57.6801 48.68 58.4801 47.2L62.1601 54.48L56.1201 59.88L55.3201 54.28L56.1201 47.2Z" fill="#EA5B13"/>
<path d="M61.76 48.9999C61.76 48.9999 63.32 50.4799 64.1201 48.9999L67.8001 56.28L61.76 61.68L60.96 56.08L61.76 48.9999Z" fill="#EA5B13"/>
<path d="M58.92 66C58.8 66 58.68 65.96 58.6 65.88L55.48 63.08C55.4 63 55.36 62.92 55.32 62.8L55.12 61.64C55.08 61.48 55.12 61.36 55.24 61.24L63.32 51.56C63.36 51.52 63.36 51.52 63.4 51.48C63.44 51.44 64.32 50.8 65.48 50.8C66.16 50.8 66.84 51.04 67.4 51.52C69.64 53.36 68.92 54.72 68.64 55.08C68.24 55.6 59.68 65.48 59.32 65.88C59.2 65.92 59.08 66 58.92 66Z" fill="#EA5B13"/>
<path d="M65.44 51.2799C65.96 51.2799 66.48 51.4399 67.04 51.8799C68.68 53.1999 68.6 54.2399 68.2 54.7599C67.8 55.2799 58.92 65.5199 58.92 65.5199L55.8 62.7199L55.6 61.5599L63.68 51.8799C63.64 51.8399 64.44 51.2799 65.44 51.2799ZM65.44 50.2799C64.16 50.2799 63.2 50.9999 63.08 51.0799C63.04 51.1199 62.96 51.1599 62.92 51.2399L54.8 60.9199C54.6 61.1599 54.52 61.4399 54.6 61.7199L54.8 62.8799C54.84 63.0799 54.96 63.2799 55.12 63.4399L58.24 66.2399C58.44 66.3999 58.64 66.4799 58.88 66.4799C58.92 66.4799 58.92 66.4799 58.96 66.4799C59.24 66.4799 59.48 66.3599 59.64 66.1599C60.56 65.1199 68.56 55.8799 68.96 55.3199C69.2 54.9999 70.28 53.2799 67.64 51.0799C67 50.5599 66.24 50.2799 65.44 50.2799Z" fill="white"/>
<path d="M53.88 64.32C53.76 64.32 53.64 64.28 53.56 64.2L50.44 61.4C50.32 61.32 50.28 61.16 50.28 61L50.32 59.52C50.32 59.4 50.36 59.32 50.44 59.2L63.36 44.12C63.48 44 65.12 42.6 66.76 42.6C67.32 42.6 67.84 42.76 68.28 43.12C69.08 43.76 69.56 44.48 69.64 45.24C69.72 45.92 69.48 46.68 69 47.28C68.36 48.08 54.84 63.48 54.24 64.16C54.16 64.24 54.04 64.32 53.88 64.32C53.92 64.32 53.88 64.32 53.88 64.32Z" fill="#EA5B13"/>
<path d="M66.76 43.1199C67.2 43.1199 67.6 43.2399 67.96 43.5199C69.64 44.7999 69.24 46.1999 68.6 46.9999C67.96 47.7999 53.88 63.8399 53.88 63.8399L50.76 61.0399L50.8 59.5599L63.72 44.4799C63.76 44.4399 65.28 43.1199 66.76 43.1199ZM66.76 42.1199C64.96 42.1199 63.28 43.5599 63.08 43.7199C63.04 43.7599 63 43.7999 63 43.8399L50.08 58.9199C49.92 59.0799 49.84 59.2799 49.84 59.5199L49.8 60.9999C49.8 61.2799 49.92 61.5599 50.12 61.7599L53.24 64.5599C53.44 64.7199 53.64 64.7999 53.88 64.7999H53.92C54.2 64.7999 54.44 64.6799 54.6 64.4799C55.16 63.8399 68.72 48.3999 69.36 47.5999C69.92 46.8799 70.2 46.0399 70.12 45.1999C70 44.2799 69.48 43.4399 68.56 42.7599C68.08 42.3199 67.44 42.1199 66.76 42.1199Z" fill="white"/>
<path d="M51.52 59.3601C51.4 59.3601 51.28 59.3201 51.2 59.2401L48.08 56.4401C47.96 56.3201 47.92 56.2001 47.92 56.0401L48.04 54.5201C48.04 54.4001 48.08 54.3201 48.16 54.2401L62.12 38.0001C62.24 37.8801 64.0399 36.3201 65.7599 36.3201C66.3199 36.3201 66.7999 36.4801 67.1999 36.8001C67.9999 37.4001 68.4399 38.1201 68.5199 38.8801C68.6399 39.8801 68.1199 40.6801 67.7999 41.0801C67.1199 41.9201 52.52 58.5201 51.92 59.2401C51.8 59.2801 51.68 59.3601 51.52 59.3601Z" fill="#EA5B13"/>
<path d="M65.72 36.76C66.12 36.76 66.52 36.88 66.88 37.12C68.56 38.4 68.12 39.84 67.4 40.72C66.72 41.56 51.52 58.84 51.52 58.84L48.4 56.04L48.52 54.52L62.48 38.28C62.44 38.28 64.16 36.76 65.72 36.76ZM65.72 35.8C63.84 35.8 62 37.4 61.8 37.56C61.76 37.6 61.72 37.64 61.72 37.64L47.76 53.88C47.64 54.04 47.56 54.24 47.52 54.44L47.4 55.96C47.36 56.28 47.48 56.56 47.72 56.76L50.84 59.56C51.04 59.72 51.24 59.8 51.48 59.8H51.52C51.8 59.8 52.04 59.68 52.2 59.48C52.84 58.76 67.4 42.16 68.12 41.32C68.76 40.52 69.04 39.64 68.92 38.76C68.8 37.84 68.32 37.04 67.4 36.36C66.96 36 66.36 35.8 65.72 35.8Z" fill="white"/>
<path d="M48.92 54.52C48.8 54.52 48.68 54.48 48.6 54.4L45.48 51.6C45.36 51.52 45.32 51.36 45.32 51.24V49.84C45.32 49.72 45.36 49.6 45.44 49.52L57.36 35.56C57.48 35.44 58.96 34.2 60.52 34.2C61.12 34.2 61.64 34.4 62.12 34.72C62.96 35.36 63.44 36.12 63.52 36.88C63.6 37.52 63.4 38.2 62.96 38.76C62.36 39.48 49.88 53.76 49.36 54.36C49.2 54.48 49.08 54.52 48.92 54.52C48.96 54.52 48.92 54.52 48.92 54.52Z" fill="#EA5B13"/>
<path d="M60.48 34.6799C60.92 34.6799 61.36 34.7999 61.76 35.1199C63.4 36.4399 63.08 37.7199 62.52 38.4799C61.92 39.1999 48.92 54.0799 48.92 54.0799L45.8 51.2799V49.8799L57.72 35.9199C57.72 35.8399 59.12 34.6799 60.48 34.6799ZM60.48 33.6799C58.76 33.6799 57.24 34.9599 57.08 35.0799C57.04 35.1199 57 35.1599 56.96 35.1999L45.04 49.1999C44.88 49.3599 44.8 49.5999 44.8 49.8399V51.2399C44.8 51.5199 44.92 51.7999 45.12 51.9599L48.24 54.7599C48.44 54.9199 48.64 54.9999 48.88 54.9999H48.92C49.2 54.9999 49.44 54.8799 49.6 54.6799C50.12 54.0799 62.64 39.7999 63.24 39.0399C63.76 38.3999 64 37.5999 63.92 36.7999C63.8 35.8799 63.28 35.0399 62.32 34.3199C61.84 33.9199 61.2 33.6799 60.48 33.6799Z" fill="white"/>
<path d="M59.68 64.5999L46.84 50.7199L47.12 48.2799L45.8 49.7999C45.8 49.7999 45.32 49.6399 46.08 47.6799C46.72 46.0799 48.12 43.9599 47.48 42.3599C47.28 41.9599 46.96 41.6399 46.6 41.3199C46.2 41.0399 45.92 40.8799 45.76 40.7199C45.4 40.6799 44.56 40.8799 43.36 42.5199C43.08 42.9599 42.68 43.6799 42.12 44.5599C41.68 45.3199 41.16 46.1599 40.6 47.0399C38.8 49.9199 38.72 50.9999 38.72 50.9999C38.72 50.9999 36.8 58.5599 37 59.9999C37.2 61.4399 36.28 62.5199 36.28 62.5199L33 66.1599L43.68 76.5599C47.56 71.1199 48.92 71.3599 48.92 71.3599C55.16 70.7599 59.68 64.5999 59.68 64.5999Z" fill="#EA5B13"/>
</g>
<path d="M21.5817 92.6V101H20.3817V97.256H15.5577V101H14.3577V92.6H15.5577V96.212H20.3817V92.6H21.5817ZM26.6519 101.072C26.0199 101.072 25.4519 100.932 24.9479 100.652C24.4439 100.372 24.0479 99.988 23.7599 99.5C23.4799 99.004 23.3399 98.444 23.3399 97.82C23.3399 97.196 23.4799 96.64 23.7599 96.152C24.0479 95.656 24.4439 95.272 24.9479 95C25.4519 94.72 26.0199 94.58 26.6519 94.58C27.2839 94.58 27.8479 94.72 28.3439 95C28.8479 95.272 29.2399 95.656 29.5199 96.152C29.8079 96.64 29.9519 97.196 29.9519 97.82C29.9519 98.444 29.8079 99.004 29.5199 99.5C29.2399 99.988 28.8479 100.372 28.3439 100.652C27.8479 100.932 27.2839 101.072 26.6519 101.072ZM26.6519 100.064C27.0599 100.064 27.4239 99.972 27.7439 99.788C28.0719 99.596 28.3279 99.332 28.5119 98.996C28.6959 98.652 28.7879 98.26 28.7879 97.82C28.7879 97.38 28.6959 96.992 28.5119 96.656C28.3279 96.312 28.0719 96.048 27.7439 95.864C27.4239 95.68 27.0599 95.588 26.6519 95.588C26.2439 95.588 25.8759 95.68 25.5479 95.864C25.2279 96.048 24.9719 96.312 24.7799 96.656C24.5959 96.992 24.5039 97.38 24.5039 97.82C24.5039 98.26 24.5959 98.652 24.7799 98.996C24.9719 99.332 25.2279 99.596 25.5479 99.788C25.8759 99.972 26.2439 100.064 26.6519 100.064ZM34.9411 94.58C35.7491 94.58 36.3891 94.816 36.8611 95.288C37.3411 95.752 37.5811 96.436 37.5811 97.34V101H36.4291V97.472C36.4291 96.856 36.2811 96.392 35.9851 96.08C35.6891 95.768 35.2651 95.612 34.7131 95.612C34.0891 95.612 33.5971 95.796 33.2371 96.164C32.8771 96.524 32.6971 97.044 32.6971 97.724V101H31.5451V94.64H32.6491V95.6C32.8811 95.272 33.1931 95.02 33.5851 94.844C33.9851 94.668 34.4371 94.58 34.9411 94.58ZM45.4963 97.856C45.4963 97.944 45.4883 98.06 45.4723 98.204H40.3123C40.3843 98.764 40.6283 99.216 41.0443 99.56C41.4683 99.896 41.9923 100.064 42.6163 100.064C43.3763 100.064 43.9883 99.808 44.4523 99.296L45.0883 100.04C44.8003 100.376 44.4403 100.632 44.0083 100.808C43.5843 100.984 43.1083 101.072 42.5803 101.072C41.9083 101.072 41.3123 100.936 40.7923 100.664C40.2723 100.384 39.8683 99.996 39.5803 99.5C39.3003 99.004 39.1603 98.444 39.1603 97.82C39.1603 97.204 39.2963 96.648 39.5683 96.152C39.8483 95.656 40.2283 95.272 40.7083 95C41.1963 94.72 41.7443 94.58 42.3523 94.58C42.9603 94.58 43.5003 94.72 43.9723 95C44.4523 95.272 44.8243 95.656 45.0883 96.152C45.3603 96.648 45.4963 97.216 45.4963 97.856ZM42.3523 95.552C41.8003 95.552 41.3363 95.72 40.9603 96.056C40.5923 96.392 40.3763 96.832 40.3123 97.376H44.3923C44.3283 96.84 44.1083 96.404 43.7323 96.068C43.3643 95.724 42.9043 95.552 42.3523 95.552ZM48.9199 101.072C48.3999 101.072 47.8999 101.004 47.4199 100.868C46.9399 100.724 46.5639 100.544 46.2919 100.328L46.7719 99.416C47.0519 99.616 47.3919 99.776 47.7919 99.896C48.1919 100.016 48.5959 100.076 49.0039 100.076C50.0119 100.076 50.5159 99.788 50.5159 99.212C50.5159 99.02 50.4479 98.868 50.3119 98.756C50.1759 98.644 50.0039 98.564 49.7959 98.516C49.5959 98.46 49.3079 98.4 48.9319 98.336C48.4199 98.256 47.9999 98.164 47.6719 98.06C47.3519 97.956 47.0759 97.78 46.8439 97.532C46.6119 97.284 46.4959 96.936 46.4959 96.488C46.4959 95.912 46.7359 95.452 47.2159 95.108C47.6959 94.756 48.3399 94.58 49.1479 94.58C49.5719 94.58 49.9959 94.632 50.4199 94.736C50.8439 94.84 51.1919 94.98 51.4639 95.156L50.9719 96.068C50.4519 95.732 49.8399 95.564 49.1359 95.564C48.6479 95.564 48.2759 95.644 48.0199 95.804C47.7639 95.964 47.6359 96.176 47.6359 96.44C47.6359 96.648 47.7079 96.812 47.8519 96.932C47.9959 97.052 48.1719 97.14 48.3799 97.196C48.5959 97.252 48.8959 97.316 49.2799 97.388C49.7919 97.476 50.2039 97.572 50.5159 97.676C50.8359 97.772 51.1079 97.94 51.3319 98.18C51.5559 98.42 51.6679 98.756 51.6679 99.188C51.6679 99.764 51.4199 100.224 50.9239 100.568C50.4359 100.904 49.7679 101.072 48.9199 101.072ZM56.6836 100.628C56.5156 100.772 56.3076 100.884 56.0596 100.964C55.8116 101.036 55.5556 101.072 55.2916 101.072C54.6516 101.072 54.1556 100.9 53.8036 100.556C53.4516 100.212 53.2756 99.72 53.2756 99.08V95.588H52.1956V94.64H53.2756V93.248H54.4276V94.64H56.2516V95.588H54.4276V99.032C54.4276 99.376 54.5116 99.64 54.6796 99.824C54.8556 100.008 55.1036 100.1 55.4236 100.1C55.7756 100.1 56.0756 100 56.3236 99.8L56.6836 100.628ZM58.0764 94.64H59.2284V101H58.0764V94.64ZM58.6524 93.416C58.4284 93.416 58.2404 93.344 58.0884 93.2C57.9444 93.056 57.8724 92.88 57.8724 92.672C57.8724 92.464 57.9444 92.288 58.0884 92.144C58.2404 91.992 58.4284 91.916 58.6524 91.916C58.8764 91.916 59.0604 91.988 59.2044 92.132C59.3564 92.268 59.4324 92.44 59.4324 92.648C59.4324 92.864 59.3564 93.048 59.2044 93.2C59.0604 93.344 58.8764 93.416 58.6524 93.416ZM67.4279 92.096V101H66.3239V99.992C66.0679 100.344 65.7439 100.612 65.3519 100.796C64.9599 100.98 64.5279 101.072 64.0559 101.072C63.4399 101.072 62.8879 100.936 62.3999 100.664C61.9119 100.392 61.5279 100.012 61.2479 99.524C60.9759 99.028 60.8399 98.46 60.8399 97.82C60.8399 97.18 60.9759 96.616 61.2479 96.128C61.5279 95.64 61.9119 95.26 62.3999 94.988C62.8879 94.716 63.4399 94.58 64.0559 94.58C64.5119 94.58 64.9319 94.668 65.3159 94.844C65.6999 95.012 66.0199 95.264 66.2759 95.6V92.096H67.4279ZM64.1519 100.064C64.5519 100.064 64.9159 99.972 65.2439 99.788C65.5719 99.596 65.8279 99.332 66.0119 98.996C66.1959 98.652 66.2879 98.26 66.2879 97.82C66.2879 97.38 66.1959 96.992 66.0119 96.656C65.8279 96.312 65.5719 96.048 65.2439 95.864C64.9159 95.68 64.5519 95.588 64.1519 95.588C63.7439 95.588 63.3759 95.68 63.0479 95.864C62.7279 96.048 62.4719 96.312 62.2799 96.656C62.0959 96.992 62.0039 97.38 62.0039 97.82C62.0039 98.26 62.0959 98.652 62.2799 98.996C62.4719 99.332 62.7279 99.596 63.0479 99.788C63.3759 99.972 63.7439 100.064 64.1519 100.064ZM71.9236 94.58C72.8036 94.58 73.4756 94.796 73.9396 95.228C74.4116 95.66 74.6476 96.304 74.6476 97.16V101H73.5556V100.16C73.3636 100.456 73.0876 100.684 72.7276 100.844C72.3756 100.996 71.9556 101.072 71.4676 101.072C70.7556 101.072 70.1836 100.9 69.7516 100.556C69.3276 100.212 69.1156 99.76 69.1156 99.2C69.1156 98.64 69.3196 98.192 69.7276 97.856C70.1356 97.512 70.7836 97.34 71.6716 97.34H73.4956V97.112C73.4956 96.616 73.3516 96.236 73.0636 95.972C72.7756 95.708 72.3516 95.576 71.7916 95.576C71.4156 95.576 71.0476 95.64 70.6876 95.768C70.3276 95.888 70.0236 96.052 69.7756 96.26L69.2956 95.396C69.6236 95.132 70.0156 94.932 70.4716 94.796C70.9276 94.652 71.4116 94.58 71.9236 94.58ZM71.6596 100.184C72.0996 100.184 72.4796 100.088 72.7996 99.896C73.1196 99.696 73.3516 99.416 73.4956 99.056V98.168H71.7196C70.7436 98.168 70.2556 98.496 70.2556 99.152C70.2556 99.472 70.3796 99.724 70.6276 99.908C70.8756 100.092 71.2196 100.184 71.6596 100.184ZM82.8147 92.096V101H81.7107V99.992C81.4547 100.344 81.1307 100.612 80.7387 100.796C80.3467 100.98 79.9147 101.072 79.4427 101.072C78.8267 101.072 78.2747 100.936 77.7867 100.664C77.2987 100.392 76.9147 100.012 76.6347 99.524C76.3627 99.028 76.2267 98.46 76.2267 97.82C76.2267 97.18 76.3627 96.616 76.6347 96.128C76.9147 95.64 77.2987 95.26 77.7867 94.988C78.2747 94.716 78.8267 94.58 79.4427 94.58C79.8987 94.58 80.3187 94.668 80.7027 94.844C81.0867 95.012 81.4067 95.264 81.6627 95.6V92.096H82.8147ZM79.5387 100.064C79.9387 100.064 80.3027 99.972 80.6307 99.788C80.9587 99.596 81.2147 99.332 81.3987 98.996C81.5827 98.652 81.6747 98.26 81.6747 97.82C81.6747 97.38 81.5827 96.992 81.3987 96.656C81.2147 96.312 80.9587 96.048 80.6307 95.864C80.3027 95.68 79.9387 95.588 79.5387 95.588C79.1307 95.588 78.7627 95.68 78.4347 95.864C78.1147 96.048 77.8587 96.312 77.6667 96.656C77.4827 96.992 77.3907 97.38 77.3907 97.82C77.3907 98.26 77.4827 98.652 77.6667 98.996C77.8587 99.332 78.1147 99.596 78.4347 99.788C78.7627 99.972 79.1307 100.064 79.5387 100.064Z" fill="black"/>
<defs>
<filter id="filter0_d" x="0" y="0" width="96" height="120" filterUnits="userSpaceOnUse" color-interpolation-filters="sRGB">
<feFlood flood-opacity="0" result="BackgroundImageFix"/>
<feColorMatrix in="SourceAlpha" type="matrix" values="0 0 0 0 0 0 0 0 0 0 0 0 0 0 0 0 0 0 127 0"/>
<feOffset/>
<feGaussianBlur stdDeviation="3"/>
<feColorMatrix type="matrix" values="0 0 0 0 0 0 0 0 0 0 0 0 0 0 0 0 0 0 0.25 0"/>
<feBlend mode="normal" in2="BackgroundImageFix" result="effect1_dropShadow"/>
<feBlend mode="normal" in="SourceGraphic" in2="effect1_dropShadow" result="shape"/>
</filter>
<clipPath id="clip0">
<rect width="80" height="80" fill="white" transform="translate(8 6)"/>
</clipPath>
</defs>
</svg>
