<svg width="96" height="120" viewBox="0 0 96 120" fill="none" xmlns="http://www.w3.org/2000/svg">
<g filter="url(#filter0_d)">
<rect x="6" y="6" width="84" height="108" rx="10" fill="white"/>
</g>
<path d="M79.24 83.08H16.56C13.92 83.08 11.76 80.92 11.76 78.28V17.24C11.76 14.6 13.92 12.44 16.56 12.44H79.28C81.92 12.44 84.08 14.6 84.08 17.24V78.32C84.04 80.92 81.88 83.08 79.24 83.08Z" stroke="black" stroke-miterlimit="10"/>
<path d="M49.12 74.64H46.64C44.8 74.64 44.52 74.16 44.52 71.08V27.76C44.52 24.72 44.76 24.2 46.64 24.2H49.12C50.96 24.2 51.28 24.68 51.28 27.76L51.2 71.08C51.2 74.12 50.96 74.64 49.12 74.64Z" fill="#BD1218"/>
<path d="M25.04 30.48V29C25.04 27.88 25.48 27.76 28.32 27.76H68.2C71 27.76 71.48 27.92 71.48 29V30.48C71.48 31.6 71.04 31.76 68.2 31.76L28.32 31.72C25.52 31.72 25.04 31.6 25.04 30.48Z" fill="#BD1218"/>
<path d="M57.92 48.6C59.52 53.44 64.08 56.92 69.44 56.92C74.8 56.92 79.36 53.44 80.96 48.6H57.92Z" fill="#EA5B13"/>
<path d="M69.4399 30.4399L58.9199 48.6399H79.9199L69.4399 30.4399Z" stroke="#BD1218" stroke-width="2" stroke-miterlimit="10" stroke-linecap="round" stroke-linejoin="round"/>
<path d="M14.88 48.6C16.48 53.44 21.04 56.92 26.4 56.92C31.76 56.92 36.32 53.44 37.92 48.6H14.88Z" fill="#EA5B13"/>
<path d="M26.4 30.4399L15.88 48.6399H36.88L26.4 30.4399Z" stroke="#BD1218" stroke-width="2" stroke-miterlimit="10" stroke-linecap="round" stroke-linejoin="round"/>
<path d="M39.36 73.76C38.08 73.76 37.76 73.6 37.76 72.32V70.84C37.76 69.56 38.12 69.4 39.36 69.4H56.48C57.72 69.4 58.08 69.6 58.08 70.84V72.32C58.08 73.52 57.8 73.8 56.48 73.8L39.36 73.76Z" fill="#BD1218"/>
<path d="M56.48 69.6C57.68 69.6 57.88 69.76 57.88 70.84V72.32C57.88 73.44 57.68 73.6 56.48 73.6L39.36 73.56C38.16 73.56 37.96 73.44 37.96 72.32V70.84C37.96 69.72 38.16 69.6 39.36 69.6H56.48ZM56.48 69.2H39.36C38.04 69.2 37.56 69.44 37.56 70.84V72.32C37.56 73.72 38 73.96 39.36 73.96L56.48 74C57.92 74 58.28 73.64 58.28 72.32V70.84C58.28 69.48 57.8 69.2 56.48 69.2Z" fill="white"/>
<path d="M24.68 77.04V75.2C24.68 73.84 25.12 73.64 27.96 73.64H67.84C70.64 73.64 71.12 73.84 71.12 75.2V77.04C71.12 78.4 70.68 78.64 67.84 78.64L27.96 78.56C25.16 78.56 24.68 78.4 24.68 77.04Z" fill="#BD1218" stroke="white" stroke-width="2" stroke-miterlimit="10"/>
<path d="M47.92 41.64C49.0908 41.64 50.04 40.6908 50.04 39.52C50.04 38.3492 49.0908 37.4 47.92 37.4C46.7491 37.4 45.8 38.3492 45.8 39.52C45.8 40.6908 46.7491 41.64 47.92 41.64Z" fill="#BD1218"/>
<path d="M26.3478 101.096C25.8438 101.096 25.3758 100.992 24.9438 100.784C24.5118 100.568 24.1638 100.268 23.8998 99.884L24.5958 99.068C25.0598 99.732 25.6438 100.064 26.3478 100.064C26.8198 100.064 27.1758 99.92 27.4158 99.632C27.6638 99.344 27.7878 98.92 27.7878 98.36V93.644H24.7518V92.6H28.9758V98.3C28.9758 99.228 28.7518 99.928 28.3038 100.4C27.8638 100.864 27.2118 101.096 26.3478 101.096ZM37.1802 94.64V101H36.0882V100.04C35.8562 100.368 35.5482 100.624 35.1642 100.808C34.7882 100.984 34.3762 101.072 33.9282 101.072C33.0802 101.072 32.4122 100.84 31.9242 100.376C31.4362 99.904 31.1922 99.212 31.1922 98.3V94.64H32.3442V98.168C32.3442 98.784 32.4922 99.252 32.7882 99.572C33.0842 99.884 33.5082 100.04 34.0602 100.04C34.6682 100.04 35.1482 99.856 35.5002 99.488C35.8522 99.12 36.0282 98.6 36.0282 97.928V94.64H37.1802ZM41.1973 101.072C40.6773 101.072 40.1773 101.004 39.6973 100.868C39.2173 100.724 38.8413 100.544 38.5693 100.328L39.0493 99.416C39.3293 99.616 39.6693 99.776 40.0693 99.896C40.4693 100.016 40.8733 100.076 41.2812 100.076C42.2893 100.076 42.7933 99.788 42.7933 99.212C42.7933 99.02 42.7253 98.868 42.5893 98.756C42.4533 98.644 42.2813 98.564 42.0733 98.516C41.8733 98.46 41.5853 98.4 41.2093 98.336C40.6973 98.256 40.2773 98.164 39.9493 98.06C39.6293 97.956 39.3533 97.78 39.1213 97.532C38.8893 97.284 38.7733 96.936 38.7733 96.488C38.7733 95.912 39.0133 95.452 39.4933 95.108C39.9733 94.756 40.6173 94.58 41.4253 94.58C41.8493 94.58 42.2733 94.632 42.6973 94.736C43.1213 94.84 43.4693 94.98 43.7413 95.156L43.2493 96.068C42.7293 95.732 42.1173 95.564 41.4133 95.564C40.9253 95.564 40.5533 95.644 40.2973 95.804C40.0413 95.964 39.9133 96.176 39.9133 96.44C39.9133 96.648 39.9853 96.812 40.1293 96.932C40.2733 97.052 40.4493 97.14 40.6573 97.196C40.8733 97.252 41.1733 97.316 41.5573 97.388C42.0693 97.476 42.4813 97.572 42.7933 97.676C43.1133 97.772 43.3853 97.94 43.6093 98.18C43.8333 98.42 43.9453 98.756 43.9453 99.188C43.9453 99.764 43.6973 100.224 43.2013 100.568C42.7133 100.904 42.0453 101.072 41.1973 101.072ZM48.961 100.628C48.793 100.772 48.585 100.884 48.337 100.964C48.089 101.036 47.833 101.072 47.569 101.072C46.929 101.072 46.433 100.9 46.081 100.556C45.729 100.212 45.553 99.72 45.553 99.08V95.588H44.473V94.64H45.553V93.248H46.705V94.64H48.529V95.588H46.705V99.032C46.705 99.376 46.789 99.64 46.957 99.824C47.133 100.008 47.381 100.1 47.701 100.1C48.053 100.1 48.353 100 48.601 99.8L48.961 100.628ZM50.3537 94.64H51.5057V101H50.3537V94.64ZM50.9297 93.416C50.7057 93.416 50.5177 93.344 50.3657 93.2C50.2217 93.056 50.1497 92.88 50.1497 92.672C50.1497 92.464 50.2217 92.288 50.3657 92.144C50.5177 91.992 50.7057 91.916 50.9297 91.916C51.1537 91.916 51.3377 91.988 51.4817 92.132C51.6337 92.268 51.7097 92.44 51.7097 92.648C51.7097 92.864 51.6337 93.048 51.4817 93.2C51.3377 93.344 51.1537 93.416 50.9297 93.416ZM56.4773 101.072C55.8293 101.072 55.2493 100.932 54.7373 100.652C54.2333 100.372 53.8373 99.988 53.5493 99.5C53.2613 99.004 53.1173 98.444 53.1173 97.82C53.1173 97.196 53.2613 96.64 53.5493 96.152C53.8373 95.656 54.2333 95.272 54.7373 95C55.2493 94.72 55.8293 94.58 56.4773 94.58C57.0533 94.58 57.5653 94.696 58.0133 94.928C58.4693 95.16 58.8213 95.496 59.0693 95.936L58.1933 96.5C57.9933 96.196 57.7453 95.968 57.4493 95.816C57.1533 95.664 56.8253 95.588 56.4653 95.588C56.0493 95.588 55.6733 95.68 55.3373 95.864C55.0093 96.048 54.7493 96.312 54.5573 96.656C54.3733 96.992 54.2813 97.38 54.2813 97.82C54.2813 98.268 54.3733 98.664 54.5573 99.008C54.7493 99.344 55.0093 99.604 55.3373 99.788C55.6733 99.972 56.0493 100.064 56.4653 100.064C56.8253 100.064 57.1533 99.988 57.4493 99.836C57.7453 99.684 57.9933 99.456 58.1933 99.152L59.0693 99.704C58.8213 100.144 58.4693 100.484 58.0133 100.724C57.5653 100.956 57.0533 101.072 56.4773 101.072ZM60.5608 94.64H61.7128V101H60.5608V94.64ZM61.1368 93.416C60.9128 93.416 60.7248 93.344 60.5728 93.2C60.4288 93.056 60.3568 92.88 60.3568 92.672C60.3568 92.464 60.4288 92.288 60.5728 92.144C60.7248 91.992 60.9128 91.916 61.1368 91.916C61.3608 91.916 61.5448 91.988 61.6888 92.132C61.8408 92.268 61.9168 92.44 61.9168 92.648C61.9168 92.864 61.8408 93.048 61.6888 93.2C61.5448 93.344 61.3608 93.416 61.1368 93.416ZM66.2283 94.58C67.1083 94.58 67.7803 94.796 68.2443 95.228C68.7163 95.66 68.9523 96.304 68.9523 97.16V101H67.8603V100.16C67.6683 100.456 67.3923 100.684 67.0323 100.844C66.6803 100.996 66.2603 101.072 65.7723 101.072C65.0603 101.072 64.4883 100.9 64.0563 100.556C63.6323 100.212 63.4203 99.76 63.4203 99.2C63.4203 98.64 63.6243 98.192 64.0323 97.856C64.4403 97.512 65.0883 97.34 65.9763 97.34H67.8003V97.112C67.8003 96.616 67.6563 96.236 67.3683 95.972C67.0803 95.708 66.6563 95.576 66.0963 95.576C65.7203 95.576 65.3523 95.64 64.9923 95.768C64.6323 95.888 64.3283 96.052 64.0803 96.26L63.6003 95.396C63.9283 95.132 64.3203 94.932 64.7763 94.796C65.2323 94.652 65.7163 94.58 66.2283 94.58ZM65.9643 100.184C66.4043 100.184 66.7843 100.088 67.1043 99.896C67.4243 99.696 67.6563 99.416 67.8003 99.056V98.168H66.0243C65.0483 98.168 64.5603 98.496 64.5603 99.152C64.5603 99.472 64.6843 99.724 64.9323 99.908C65.1803 100.092 65.5243 100.184 65.9643 100.184Z" fill="black"/>
<defs>
<filter id="filter0_d" x="0" y="0" width="96" height="120" filterUnits="userSpaceOnUse" color-interpolation-filters="sRGB">
<feFlood flood-opacity="0" result="BackgroundImageFix"/>
<feColorMatrix in="SourceAlpha" type="matrix" values="0 0 0 0 0 0 0 0 0 0 0 0 0 0 0 0 0 0 127 0"/>
<feOffset/>
<feGaussianBlur stdDeviation="3"/>
<feColorMatrix type="matrix" values="0 0 0 0 0 0 0 0 0 0 0 0 0 0 0 0 0 0 0.25 0"/>
<feBlend mode="normal" in2="BackgroundImageFix" result="effect1_dropShadow"/>
<feBlend mode="normal" in="SourceGraphic" in2="effect1_dropShadow" result="shape"/>
</filter>
</defs>
</svg>
