<svg width="30" height="30" viewBox="0 0 30 30" fill="none" xmlns="http://www.w3.org/2000/svg">
<path d="M15 22.8C20.3102 22.8 24.615 18.0117 24.615 12.105C24.615 6.19832 20.3102 1.41 15 1.41C9.68979 1.41 5.38501 6.19832 5.38501 12.105C5.38501 18.0117 9.68979 22.8 15 22.8Z" fill="white"/>
<path d="M24.6 11.07H5.40002V26.985H24.6V11.07Z" fill="white"/>
<path d="M28.185 22.575H1.81503C0.975034 22.575 0.285034 23.265 0.285034 24.12V25.455C0.285034 26.295 0.975034 26.985 1.81503 26.985H28.2C29.04 26.985 29.745 26.295 29.745 25.455V24.12C29.73 23.265 29.04 22.575 28.185 22.575Z" fill="white"/>
<path d="M16.4551 3.66H13.5451C12.8701 3.66 12.3151 3.105 12.3151 2.43V1.35C12.3151 0.674995 12.8701 0.119995 13.5451 0.119995H16.4401C17.1151 0.119995 17.6701 0.674995 17.6701 1.35V2.41499C17.6851 3.105 17.1301 3.66 16.4551 3.66Z" fill="white"/>
<path d="M15 29.895C16.785 29.895 18.225 28.89 18.225 27.645H11.775C11.775 28.875 13.215 29.895 15 29.895Z" fill="white"/>
</svg>
