<svg width="96" height="120" viewBox="0 0 96 120" fill="none" xmlns="http://www.w3.org/2000/svg">
<g filter="url(#filter0_d)">
<rect x="6" y="6" width="84" height="108" rx="10" fill="white"/>
</g>
<path d="M79.4401 83.24H16.76C14.12 83.24 11.96 81.08 11.96 78.44V17.4C11.96 14.76 14.12 12.6 16.76 12.6H79.4401C82.0801 12.6 84.2401 14.76 84.2401 17.4V78.44C84.2401 81.08 82.0801 83.24 79.4401 83.24Z" stroke="black" stroke-miterlimit="10"/>
<path d="M65.6801 75.24H30.36C23.84 75.24 21.4 72.32 21.4 65.84L21.16 39.4C21.16 32.88 24.84 32.36 31.36 32.36L65.6801 31.64C72.2001 31.64 75.0401 32.6 75.0401 39.12V66.16C75.0401 72.56 72.1601 75.24 65.6801 75.24Z" fill="#BD1218"/>
<path d="M67.16 57.08H29.84C22.96 57.08 20.4 55.8 20.4 51.96L20.12 39.16C20.12 35.36 23.48 31.76 30.36 31.76L67.16 31.52C74.04 31.52 77.04 35.56 77.04 39.36V51.72C77.04 55.52 74.04 57.08 67.16 57.08Z" fill="#BD1218" stroke="white" stroke-width="2" stroke-miterlimit="10"/>
<path d="M51.28 62.24H45.6C44.56 62.24 44.16 61.64 44.16 60.28L44.12 54.76C44.12 53.4 44.56 53.08 45.6 53.08L51.32 53.12C52.36 53.12 52.84 53.32 52.84 54.68V60.32C52.8 61.68 52.36 62.24 51.28 62.24Z" fill="#EA5B13"/>
<path d="M56.8401 37.48H39.2401C37.2801 37.48 33.6801 37.48 33.6801 34.52V29.4C33.6801 27.44 35.4801 25.48 39.4801 25.48L56.8401 25.36C60.7201 25.36 62.5201 27.48 62.5201 29.48V34.4C62.5201 37.48 58.5601 37.48 56.8401 37.48ZM56.8401 27.32L39.4801 27.44C36.8401 27.44 35.6401 28.44 35.6401 29.4V34.52C35.6401 34.88 35.6401 35.52 39.2401 35.52H56.8401C60.5201 35.52 60.5201 34.68 60.5201 34.36V29.44C60.5201 28.4 59.4001 27.32 56.8401 27.32Z" fill="#BD1218"/>
<path d="M15.3625 95.096C14.5145 95.096 13.7505 94.912 13.0705 94.544C12.3905 94.168 11.8545 93.652 11.4625 92.996C11.0785 92.34 10.8865 91.608 10.8865 90.8C10.8865 89.992 11.0785 89.26 11.4625 88.604C11.8545 87.948 12.3905 87.436 13.0705 87.068C13.7505 86.692 14.5145 86.504 15.3625 86.504C16.2025 86.504 16.9625 86.692 17.6425 87.068C18.3225 87.436 18.8545 87.948 19.2385 88.604C19.6225 89.252 19.8145 89.984 19.8145 90.8C19.8145 91.616 19.6225 92.352 19.2385 93.008C18.8545 93.656 18.3225 94.168 17.6425 94.544C16.9625 94.912 16.2025 95.096 15.3625 95.096ZM15.3625 94.028C15.9785 94.028 16.5305 93.888 17.0185 93.608C17.5145 93.328 17.9025 92.944 18.1825 92.456C18.4705 91.96 18.6145 91.408 18.6145 90.8C18.6145 90.192 18.4705 89.644 18.1825 89.156C17.9025 88.66 17.5145 88.272 17.0185 87.992C16.5305 87.712 15.9785 87.572 15.3625 87.572C14.7465 87.572 14.1865 87.712 13.6825 87.992C13.1865 88.272 12.7945 88.66 12.5065 89.156C12.2265 89.644 12.0865 90.192 12.0865 90.8C12.0865 91.408 12.2265 91.96 12.5065 92.456C12.7945 92.944 13.1865 93.328 13.6825 93.608C14.1865 93.888 14.7465 94.028 15.3625 94.028ZM24.8527 88.58C25.4687 88.58 26.0207 88.716 26.5087 88.988C26.9967 89.26 27.3767 89.64 27.6487 90.128C27.9287 90.616 28.0687 91.18 28.0687 91.82C28.0687 92.46 27.9287 93.028 27.6487 93.524C27.3767 94.012 26.9967 94.392 26.5087 94.664C26.0207 94.936 25.4687 95.072 24.8527 95.072C24.3967 95.072 23.9767 94.984 23.5927 94.808C23.2167 94.632 22.8967 94.376 22.6327 94.04V97.328H21.4807V88.64H22.5847V89.648C22.8407 89.296 23.1647 89.032 23.5567 88.856C23.9487 88.672 24.3807 88.58 24.8527 88.58ZM24.7567 94.064C25.1647 94.064 25.5287 93.972 25.8487 93.788C26.1767 93.596 26.4327 93.332 26.6167 92.996C26.8087 92.652 26.9047 92.26 26.9047 91.82C26.9047 91.38 26.8087 90.992 26.6167 90.656C26.4327 90.312 26.1767 90.048 25.8487 89.864C25.5287 89.68 25.1647 89.588 24.7567 89.588C24.3567 89.588 23.9927 89.684 23.6647 89.876C23.3447 90.06 23.0887 90.32 22.8967 90.656C22.7127 90.992 22.6207 91.38 22.6207 91.82C22.6207 92.26 22.7127 92.652 22.8967 92.996C23.0807 93.332 23.3367 93.596 23.6647 93.788C23.9927 93.972 24.3567 94.064 24.7567 94.064ZM32.3844 95.072C31.7524 95.072 31.1844 94.932 30.6804 94.652C30.1764 94.372 29.7804 93.988 29.4924 93.5C29.2124 93.004 29.0724 92.444 29.0724 91.82C29.0724 91.196 29.2124 90.64 29.4924 90.152C29.7804 89.656 30.1764 89.272 30.6804 89C31.1844 88.72 31.7524 88.58 32.3844 88.58C33.0164 88.58 33.5804 88.72 34.0764 89C34.5804 89.272 34.9724 89.656 35.2524 90.152C35.5404 90.64 35.6844 91.196 35.6844 91.82C35.6844 92.444 35.5404 93.004 35.2524 93.5C34.9724 93.988 34.5804 94.372 34.0764 94.652C33.5804 94.932 33.0164 95.072 32.3844 95.072ZM32.3844 94.064C32.7924 94.064 33.1564 93.972 33.4764 93.788C33.8044 93.596 34.0604 93.332 34.2444 92.996C34.4284 92.652 34.5204 92.26 34.5204 91.82C34.5204 91.38 34.4284 90.992 34.2444 90.656C34.0604 90.312 33.8044 90.048 33.4764 89.864C33.1564 89.68 32.7924 89.588 32.3844 89.588C31.9764 89.588 31.6084 89.68 31.2804 89.864C30.9604 90.048 30.7044 90.312 30.5124 90.656C30.3284 90.992 30.2364 91.38 30.2364 91.82C30.2364 92.26 30.3284 92.652 30.5124 92.996C30.7044 93.332 30.9604 93.596 31.2804 93.788C31.6084 93.972 31.9764 94.064 32.3844 94.064ZM38.3815 89.708C38.5815 89.34 38.8775 89.06 39.2695 88.868C39.6615 88.676 40.1375 88.58 40.6975 88.58V89.696C40.6335 89.688 40.5455 89.684 40.4335 89.684C39.8095 89.684 39.3175 89.872 38.9575 90.248C38.6055 90.616 38.4295 91.144 38.4295 91.832V95H37.2775V88.64H38.3815V89.708ZM45.9512 94.628C45.7832 94.772 45.5752 94.884 45.3272 94.964C45.0792 95.036 44.8232 95.072 44.5592 95.072C43.9192 95.072 43.4232 94.9 43.0712 94.556C42.7192 94.212 42.5432 93.72 42.5432 93.08V89.588H41.4632V88.64H42.5432V87.248H43.6952V88.64H45.5192V89.588H43.6952V93.032C43.6952 93.376 43.7792 93.64 43.9472 93.824C44.1232 94.008 44.3712 94.1 44.6912 94.1C45.0432 94.1 45.3432 94 45.5912 93.8L45.9512 94.628ZM47.344 88.64H48.496V95H47.344V88.64ZM47.92 87.416C47.696 87.416 47.508 87.344 47.356 87.2C47.212 87.056 47.14 86.88 47.14 86.672C47.14 86.464 47.212 86.288 47.356 86.144C47.508 85.992 47.696 85.916 47.92 85.916C48.144 85.916 48.328 85.988 48.472 86.132C48.624 86.268 48.7 86.44 48.7 86.648C48.7 86.864 48.624 87.048 48.472 87.2C48.328 87.344 48.144 87.416 47.92 87.416ZM54.0915 88.58C54.8995 88.58 55.5395 88.816 56.0115 89.288C56.4915 89.752 56.7315 90.436 56.7315 91.34V95H55.5795V91.472C55.5795 90.856 55.4315 90.392 55.1355 90.08C54.8395 89.768 54.4155 89.612 53.8635 89.612C53.2395 89.612 52.7475 89.796 52.3875 90.164C52.0275 90.524 51.8475 91.044 51.8475 91.724V95H50.6955V88.64H51.7995V89.6C52.0315 89.272 52.3435 89.02 52.7355 88.844C53.1355 88.668 53.5875 88.58 54.0915 88.58ZM58.8635 88.64H60.0155V95H58.8635V88.64ZM59.4395 87.416C59.2155 87.416 59.0275 87.344 58.8755 87.2C58.7315 87.056 58.6595 86.88 58.6595 86.672C58.6595 86.464 58.7315 86.288 58.8755 86.144C59.0275 85.992 59.2155 85.916 59.4395 85.916C59.6635 85.916 59.8475 85.988 59.9915 86.132C60.1435 86.268 60.2195 86.44 60.2195 86.648C60.2195 86.864 60.1435 87.048 59.9915 87.2C59.8475 87.344 59.6635 87.416 59.4395 87.416ZM68.215 86.096V95H67.111V93.992C66.855 94.344 66.531 94.612 66.139 94.796C65.747 94.98 65.315 95.072 64.843 95.072C64.227 95.072 63.675 94.936 63.187 94.664C62.699 94.392 62.315 94.012 62.035 93.524C61.763 93.028 61.627 92.46 61.627 91.82C61.627 91.18 61.763 90.616 62.035 90.128C62.315 89.64 62.699 89.26 63.187 88.988C63.675 88.716 64.227 88.58 64.843 88.58C65.299 88.58 65.719 88.668 66.103 88.844C66.487 89.012 66.807 89.264 67.063 89.6V86.096H68.215ZM64.939 94.064C65.339 94.064 65.703 93.972 66.031 93.788C66.359 93.596 66.615 93.332 66.799 92.996C66.983 92.652 67.075 92.26 67.075 91.82C67.075 91.38 66.983 90.992 66.799 90.656C66.615 90.312 66.359 90.048 66.031 89.864C65.703 89.68 65.339 89.588 64.939 89.588C64.531 89.588 64.163 89.68 63.835 89.864C63.515 90.048 63.259 90.312 63.067 90.656C62.883 90.992 62.791 91.38 62.791 91.82C62.791 92.26 62.883 92.652 63.067 92.996C63.259 93.332 63.515 93.596 63.835 93.788C64.163 93.972 64.531 94.064 64.939 94.064ZM72.7107 88.58C73.5907 88.58 74.2627 88.796 74.7267 89.228C75.1987 89.66 75.4347 90.304 75.4347 91.16V95H74.3427V94.16C74.1507 94.456 73.8747 94.684 73.5147 94.844C73.1627 94.996 72.7427 95.072 72.2547 95.072C71.5427 95.072 70.9707 94.9 70.5387 94.556C70.1147 94.212 69.9027 93.76 69.9027 93.2C69.9027 92.64 70.1067 92.192 70.5147 91.856C70.9227 91.512 71.5707 91.34 72.4587 91.34H74.2827V91.112C74.2827 90.616 74.1387 90.236 73.8507 89.972C73.5627 89.708 73.1387 89.576 72.5787 89.576C72.2027 89.576 71.8347 89.64 71.4747 89.768C71.1147 89.888 70.8107 90.052 70.5627 90.26L70.0827 89.396C70.4107 89.132 70.8027 88.932 71.2587 88.796C71.7147 88.652 72.1987 88.58 72.7107 88.58ZM72.4467 94.184C72.8867 94.184 73.2667 94.088 73.5867 93.896C73.9067 93.696 74.1387 93.416 74.2827 93.056V92.168H72.5067C71.5307 92.168 71.0427 92.496 71.0427 93.152C71.0427 93.472 71.1667 93.724 71.4147 93.908C71.6627 94.092 72.0067 94.184 72.4467 94.184ZM83.6018 86.096V95H82.4978V93.992C82.2418 94.344 81.9178 94.612 81.5258 94.796C81.1338 94.98 80.7018 95.072 80.2298 95.072C79.6138 95.072 79.0618 94.936 78.5738 94.664C78.0858 94.392 77.7018 94.012 77.4218 93.524C77.1498 93.028 77.0138 92.46 77.0138 91.82C77.0138 91.18 77.1498 90.616 77.4218 90.128C77.7018 89.64 78.0858 89.26 78.5738 88.988C79.0618 88.716 79.6138 88.58 80.2298 88.58C80.6858 88.58 81.1058 88.668 81.4898 88.844C81.8738 89.012 82.1938 89.264 82.4498 89.6V86.096H83.6018ZM80.3258 94.064C80.7258 94.064 81.0898 93.972 81.4178 93.788C81.7458 93.596 82.0018 93.332 82.1858 92.996C82.3698 92.652 82.4618 92.26 82.4618 91.82C82.4618 91.38 82.3698 90.992 82.1858 90.656C82.0018 90.312 81.7458 90.048 81.4178 89.864C81.0898 89.68 80.7258 89.588 80.3258 89.588C79.9178 89.588 79.5498 89.68 79.2218 89.864C78.9018 90.048 78.6458 90.312 78.4538 90.656C78.2698 90.992 78.1778 91.38 78.1778 91.82C78.1778 92.26 78.2698 92.652 78.4538 92.996C78.6458 93.332 78.9018 93.596 79.2218 93.788C79.5498 93.972 79.9178 94.064 80.3258 94.064ZM27.7561 99.096H28.9081V108H27.7561V99.096ZM33.4236 101.58C34.3036 101.58 34.9756 101.796 35.4396 102.228C35.9116 102.66 36.1476 103.304 36.1476 104.16V108H35.0556V107.16C34.8636 107.456 34.5876 107.684 34.2276 107.844C33.8756 107.996 33.4556 108.072 32.9676 108.072C32.2556 108.072 31.6836 107.9 31.2516 107.556C30.8276 107.212 30.6156 106.76 30.6156 106.2C30.6156 105.64 30.8196 105.192 31.2276 104.856C31.6356 104.512 32.2836 104.34 33.1716 104.34H34.9956V104.112C34.9956 103.616 34.8516 103.236 34.5636 102.972C34.2756 102.708 33.8516 102.576 33.2916 102.576C32.9156 102.576 32.5476 102.64 32.1876 102.768C31.8276 102.888 31.5236 103.052 31.2756 103.26L30.7956 102.396C31.1236 102.132 31.5156 101.932 31.9716 101.796C32.4276 101.652 32.9116 101.58 33.4236 101.58ZM33.1596 107.184C33.5996 107.184 33.9796 107.088 34.2996 106.896C34.6196 106.696 34.8516 106.416 34.9956 106.056V105.168H33.2196C32.2436 105.168 31.7556 105.496 31.7556 106.152C31.7556 106.472 31.8796 106.724 32.1276 106.908C32.3756 107.092 32.7196 107.184 33.1596 107.184ZM41.6515 101.58C42.2675 101.58 42.8195 101.716 43.3075 101.988C43.7955 102.26 44.1755 102.64 44.4475 103.128C44.7275 103.616 44.8675 104.18 44.8675 104.82C44.8675 105.46 44.7275 106.028 44.4475 106.524C44.1755 107.012 43.7955 107.392 43.3075 107.664C42.8195 107.936 42.2675 108.072 41.6515 108.072C41.1795 108.072 40.7475 107.98 40.3555 107.796C39.9635 107.612 39.6395 107.344 39.3835 106.992V108H38.2795V99.096H39.4315V102.6C39.6875 102.264 40.0075 102.012 40.3915 101.844C40.7755 101.668 41.1955 101.58 41.6515 101.58ZM41.5555 107.064C41.9635 107.064 42.3275 106.972 42.6475 106.788C42.9755 106.596 43.2315 106.332 43.4155 105.996C43.6075 105.652 43.7035 105.26 43.7035 104.82C43.7035 104.38 43.6075 103.992 43.4155 103.656C43.2315 103.312 42.9755 103.048 42.6475 102.864C42.3275 102.68 41.9635 102.588 41.5555 102.588C41.1555 102.588 40.7915 102.68 40.4635 102.864C40.1355 103.048 39.8795 103.312 39.6955 103.656C39.5115 103.992 39.4195 104.38 39.4195 104.82C39.4195 105.26 39.5115 105.652 39.6955 105.996C39.8795 106.332 40.1355 106.596 40.4635 106.788C40.7915 106.972 41.1555 107.064 41.5555 107.064ZM49.1832 108.072C48.5512 108.072 47.9832 107.932 47.4792 107.652C46.9752 107.372 46.5792 106.988 46.2912 106.5C46.0112 106.004 45.8712 105.444 45.8712 104.82C45.8712 104.196 46.0112 103.64 46.2912 103.152C46.5792 102.656 46.9752 102.272 47.4792 102C47.9832 101.72 48.5512 101.58 49.1832 101.58C49.8152 101.58 50.3792 101.72 50.8752 102C51.3792 102.272 51.7712 102.656 52.0512 103.152C52.3392 103.64 52.4832 104.196 52.4832 104.82C52.4832 105.444 52.3392 106.004 52.0512 106.5C51.7712 106.988 51.3792 107.372 50.8752 107.652C50.3792 107.932 49.8152 108.072 49.1832 108.072ZM49.1832 107.064C49.5912 107.064 49.9552 106.972 50.2752 106.788C50.6032 106.596 50.8592 106.332 51.0432 105.996C51.2272 105.652 51.3192 105.26 51.3192 104.82C51.3192 104.38 51.2272 103.992 51.0432 103.656C50.8592 103.312 50.6032 103.048 50.2752 102.864C49.9552 102.68 49.5912 102.588 49.1832 102.588C48.7752 102.588 48.4072 102.68 48.0792 102.864C47.7592 103.048 47.5032 103.312 47.3112 103.656C47.1272 103.992 47.0352 104.38 47.0352 104.82C47.0352 105.26 47.1272 105.652 47.3112 105.996C47.5032 106.332 47.7592 106.596 48.0792 106.788C48.4072 106.972 48.7752 107.064 49.1832 107.064ZM55.1804 102.708C55.3804 102.34 55.6764 102.06 56.0684 101.868C56.4604 101.676 56.9364 101.58 57.4964 101.58V102.696C57.4324 102.688 57.3444 102.684 57.2324 102.684C56.6084 102.684 56.1164 102.872 55.7564 103.248C55.4044 103.616 55.2284 104.144 55.2284 104.832V108H54.0764V101.64H55.1804V102.708ZM61.2205 101.58C62.1005 101.58 62.7725 101.796 63.2365 102.228C63.7085 102.66 63.9445 103.304 63.9445 104.16V108H62.8525V107.16C62.6605 107.456 62.3845 107.684 62.0245 107.844C61.6725 107.996 61.2525 108.072 60.7645 108.072C60.0525 108.072 59.4805 107.9 59.0485 107.556C58.6245 107.212 58.4125 106.76 58.4125 106.2C58.4125 105.64 58.6165 105.192 59.0245 104.856C59.4325 104.512 60.0805 104.34 60.9685 104.34H62.7925V104.112C62.7925 103.616 62.6485 103.236 62.3605 102.972C62.0725 102.708 61.6485 102.576 61.0885 102.576C60.7125 102.576 60.3445 102.64 59.9845 102.768C59.6245 102.888 59.3205 103.052 59.0725 103.26L58.5925 102.396C58.9205 102.132 59.3125 101.932 59.7685 101.796C60.2245 101.652 60.7085 101.58 61.2205 101.58ZM60.9565 107.184C61.3965 107.184 61.7765 107.088 62.0965 106.896C62.4165 106.696 62.6485 106.416 62.7925 106.056V105.168H61.0165C60.0405 105.168 59.5525 105.496 59.5525 106.152C59.5525 106.472 59.6765 106.724 59.9245 106.908C60.1725 107.092 60.5165 107.184 60.9565 107.184ZM66.0764 99.096H67.2284V108H66.0764V99.096Z" fill="black"/>
<defs>
<filter id="filter0_d" x="0" y="0" width="96" height="120" filterUnits="userSpaceOnUse" color-interpolation-filters="sRGB">
<feFlood flood-opacity="0" result="BackgroundImageFix"/>
<feColorMatrix in="SourceAlpha" type="matrix" values="0 0 0 0 0 0 0 0 0 0 0 0 0 0 0 0 0 0 127 0"/>
<feOffset/>
<feGaussianBlur stdDeviation="3"/>
<feColorMatrix type="matrix" values="0 0 0 0 0 0 0 0 0 0 0 0 0 0 0 0 0 0 0.25 0"/>
<feBlend mode="normal" in2="BackgroundImageFix" result="effect1_dropShadow"/>
<feBlend mode="normal" in="SourceGraphic" in2="effect1_dropShadow" result="shape"/>
</filter>
</defs>
</svg>
