<svg width="40" height="40" viewBox="0 0 40 40" fill="none" xmlns="http://www.w3.org/2000/svg">
<path d="M20 21.2757C24.9546 21.2757 28.9712 17.2592 28.9712 12.3045C28.9712 7.34985 24.9546 3.33331 20 3.33331C15.0453 3.33331 11.0288 7.34985 11.0288 12.3045C11.0288 17.2592 15.0453 21.2757 20 21.2757Z" fill="white"/>
<path d="M25 22.1811H15.6173C9.85597 22.1811 8.95062 27.037 8.95062 32.7366V35.9053C12.0782 38.0864 15.8848 39.3621 20 39.3621C24.0947 39.3621 27.9012 38.0864 31.0288 35.9053L31.0494 32.0165C31.0494 26.3374 30.6996 22.1811 25 22.1811Z" fill="white"/>
<path d="M20 40C8.97119 40 0 31.0288 0 20C0 8.97119 8.97119 0 20 0C31.0288 0 40 8.97119 40 20C40 31.0288 31.0288 40 20 40ZM20 1.23457C9.6502 1.23457 1.23457 9.65021 1.23457 20C1.23457 30.3498 9.6502 38.7654 20 38.7654C30.3498 38.7654 38.7654 30.3498 38.7654 20C38.7654 9.65021 30.3498 1.23457 20 1.23457Z" fill="white"/>
</svg>
