<svg width="96" height="120" viewBox="0 0 96 120" fill="none" xmlns="http://www.w3.org/2000/svg">
<g filter="url(#filter0_d)">
<rect x="6" y="6" width="84" height="108" rx="10" fill="white"/>
</g>
<path d="M79.2 83.24H16.68C14.04 83.24 11.88 81.08 11.88 78.44V17.56C11.88 14.92 14.04 12.76 16.68 12.76H79.2C81.84 12.76 84 14.92 84 17.56V78.44C84 81.08 81.84 83.24 79.2 83.24Z" stroke="black" stroke-miterlimit="10"/>
<path d="M69.6801 29.72C63.4001 29.4 53.3201 21.72 51.0001 19.92C51.0001 19.92 49.3601 17.96 47.6401 19.76C45.7201 21.28 35.2401 29.4 28.7601 29.72C28.7601 29.72 26.3601 29.72 26.5601 35C26.8001 40.28 26.5601 57.24 26.5601 57.24C26.5601 57.24 27.0401 62.12 47.6401 77.04C47.6401 77.04 49.2401 78.52 50.8001 77.04C71.3601 62.12 71.8801 57.24 71.8801 57.24C71.8801 57.24 71.6401 40.28 71.8801 35C72.1201 29.72 69.6801 29.72 69.6801 29.72Z" fill="#BD1218"/>
<path d="M49.2 60.48C57.1529 60.48 63.6 54.0329 63.6 46.08C63.6 38.1271 57.1529 31.68 49.2 31.68C41.2471 31.68 34.8 38.1271 34.8 46.08C34.8 54.0329 41.2471 60.48 49.2 60.48Z" fill="white"/>
<path d="M49.2 45.8C52.0498 45.8 54.36 43.4898 54.36 40.64C54.36 37.7902 52.0498 35.48 49.2 35.48C46.3502 35.48 44.04 37.7902 44.04 40.64C44.04 43.4898 46.3502 45.8 49.2 45.8Z" fill="#EA5B13"/>
<path d="M50.72 63.24H48.84C45.56 63.24 42.84 63.4 42.84 60.12V52.4C42.84 49.12 43.36 46.32 46.68 46.32H52.08C55.3601 46.32 55.5601 48.72 55.5601 52L55.5201 60.16C55.5601 63.48 54.0001 63.24 50.72 63.24Z" fill="#EA5B13"/>
<path d="M37.84 48.12C39.7178 48.12 41.24 46.5978 41.24 44.72C41.24 42.8422 39.7178 41.32 37.84 41.32C35.9622 41.32 34.44 42.8422 34.44 44.72C34.44 46.5978 35.9622 48.12 37.84 48.12Z" fill="#EA5B13"/>
<path d="M38.84 59.6H37.6C35.44 59.6 33.64 59.72 33.64 57.56V52.48C33.64 50.32 34 48.48 36.16 48.48H39.72C41.88 48.48 42.04 50.08 42.04 52.24V57.64C42.04 59.76 41 59.6 38.84 59.6Z" fill="#EA5B13"/>
<path d="M61.08 48.12C62.9577 48.12 64.48 46.5978 64.48 44.72C64.48 42.8422 62.9577 41.32 61.08 41.32C59.2022 41.32 57.68 42.8422 57.68 44.72C57.68 46.5978 59.2022 48.12 61.08 48.12Z" fill="#EA5B13"/>
<path d="M62.08 59.6H60.84C58.68 59.6 56.88 59.72 56.88 57.56V52.48C56.88 50.32 57.24 48.48 59.4 48.48H62.96C65.12 48.48 65.28 50.08 65.28 52.24V57.64C65.28 59.76 64.24 59.6 62.08 59.6Z" fill="#EA5B13"/>
<path d="M19.7256 95.096C19.0936 95.096 18.4816 95 17.8896 94.808C17.3056 94.608 16.8456 94.352 16.5096 94.04L16.9536 93.104C17.2736 93.392 17.6816 93.628 18.1776 93.812C18.6816 93.988 19.1976 94.076 19.7256 94.076C20.4216 94.076 20.9416 93.96 21.2856 93.728C21.6296 93.488 21.8016 93.172 21.8016 92.78C21.8016 92.492 21.7056 92.26 21.5136 92.084C21.3296 91.9 21.0976 91.76 20.8176 91.664C20.5456 91.568 20.1576 91.46 19.6536 91.34C19.0216 91.188 18.5096 91.036 18.1176 90.884C17.7336 90.732 17.4016 90.5 17.1216 90.188C16.8496 89.868 16.7136 89.44 16.7136 88.904C16.7136 88.456 16.8296 88.052 17.0616 87.692C17.3016 87.332 17.6616 87.044 18.1416 86.828C18.6216 86.612 19.2176 86.504 19.9296 86.504C20.4256 86.504 20.9136 86.568 21.3936 86.696C21.8736 86.824 22.2856 87.008 22.6296 87.248L22.2336 88.208C21.8816 87.984 21.5056 87.816 21.1056 87.704C20.7056 87.584 20.3136 87.524 19.9296 87.524C19.2496 87.524 18.7376 87.648 18.3936 87.896C18.0576 88.144 17.8896 88.464 17.8896 88.856C17.8896 89.144 17.9856 89.38 18.1776 89.564C18.3696 89.74 18.6056 89.88 18.8856 89.984C19.1736 90.08 19.5616 90.184 20.0496 90.296C20.6816 90.448 21.1896 90.6 21.5736 90.752C21.9576 90.904 22.2856 91.136 22.5576 91.448C22.8376 91.76 22.9776 92.18 22.9776 92.708C22.9776 93.148 22.8576 93.552 22.6176 93.92C22.3776 94.28 22.0136 94.568 21.5256 94.784C21.0376 94.992 20.4376 95.096 19.7256 95.096ZM30.3107 91.856C30.3107 91.944 30.3027 92.06 30.2867 92.204H25.1267C25.1987 92.764 25.4427 93.216 25.8587 93.56C26.2827 93.896 26.8067 94.064 27.4307 94.064C28.1907 94.064 28.8027 93.808 29.2667 93.296L29.9027 94.04C29.6147 94.376 29.2547 94.632 28.8227 94.808C28.3987 94.984 27.9227 95.072 27.3947 95.072C26.7227 95.072 26.1267 94.936 25.6067 94.664C25.0867 94.384 24.6827 93.996 24.3947 93.5C24.1147 93.004 23.9747 92.444 23.9747 91.82C23.9747 91.204 24.1107 90.648 24.3827 90.152C24.6627 89.656 25.0427 89.272 25.5227 89C26.0107 88.72 26.5587 88.58 27.1667 88.58C27.7747 88.58 28.3147 88.72 28.7867 89C29.2667 89.272 29.6387 89.656 29.9027 90.152C30.1747 90.648 30.3107 91.216 30.3107 91.856ZM27.1667 89.552C26.6147 89.552 26.1507 89.72 25.7747 90.056C25.4067 90.392 25.1907 90.832 25.1267 91.376H29.2067C29.1427 90.84 28.9227 90.404 28.5467 90.068C28.1787 89.724 27.7187 89.552 27.1667 89.552ZM37.9944 88.64V94.136C37.9944 95.248 37.7184 96.068 37.1664 96.596C36.6144 97.132 35.7904 97.4 34.6944 97.4C34.0944 97.4 33.5224 97.316 32.9784 97.148C32.4344 96.988 31.9944 96.756 31.6584 96.452L32.2104 95.564C32.5064 95.82 32.8704 96.02 33.3024 96.164C33.7424 96.316 34.1944 96.392 34.6584 96.392C35.4024 96.392 35.9504 96.216 36.3024 95.864C36.6624 95.512 36.8424 94.976 36.8424 94.256V93.752C36.5704 94.08 36.2344 94.328 35.8344 94.496C35.4424 94.656 35.0144 94.736 34.5504 94.736C33.9424 94.736 33.3904 94.608 32.8944 94.352C32.4064 94.088 32.0224 93.724 31.7424 93.26C31.4624 92.788 31.3224 92.252 31.3224 91.652C31.3224 91.052 31.4624 90.52 31.7424 90.056C32.0224 89.584 32.4064 89.22 32.8944 88.964C33.3904 88.708 33.9424 88.58 34.5504 88.58C35.0304 88.58 35.4744 88.668 35.8824 88.844C36.2984 89.02 36.6384 89.28 36.9024 89.624V88.64H37.9944ZM34.6824 93.728C35.0984 93.728 35.4704 93.64 35.7984 93.464C36.1344 93.288 36.3944 93.044 36.5784 92.732C36.7704 92.412 36.8664 92.052 36.8664 91.652C36.8664 91.036 36.6624 90.54 36.2544 90.164C35.8464 89.78 35.3224 89.588 34.6824 89.588C34.0344 89.588 33.5064 89.78 33.0984 90.164C32.6904 90.54 32.4864 91.036 32.4864 91.652C32.4864 92.052 32.5784 92.412 32.7624 92.732C32.9544 93.044 33.2144 93.288 33.5424 93.464C33.8784 93.64 34.2584 93.728 34.6824 93.728ZM46.1235 88.64V95H45.0315V94.04C44.7995 94.368 44.4915 94.624 44.1075 94.808C43.7315 94.984 43.3195 95.072 42.8715 95.072C42.0235 95.072 41.3555 94.84 40.8675 94.376C40.3795 93.904 40.1355 93.212 40.1355 92.3V88.64H41.2875V92.168C41.2875 92.784 41.4355 93.252 41.7315 93.572C42.0275 93.884 42.4515 94.04 43.0035 94.04C43.6115 94.04 44.0915 93.856 44.4435 93.488C44.7955 93.12 44.9715 92.6 44.9715 91.928V88.64H46.1235ZM49.4206 89.708C49.6206 89.34 49.9166 89.06 50.3086 88.868C50.7006 88.676 51.1766 88.58 51.7366 88.58V89.696C51.6726 89.688 51.5846 89.684 51.4726 89.684C50.8486 89.684 50.3566 89.872 49.9966 90.248C49.6446 90.616 49.4686 91.144 49.4686 91.832V95H48.3166V88.64H49.4206V89.708ZM53.1565 88.64H54.3085V95H53.1565V88.64ZM53.7325 87.416C53.5085 87.416 53.3205 87.344 53.1685 87.2C53.0245 87.056 52.9525 86.88 52.9525 86.672C52.9525 86.464 53.0245 86.288 53.1685 86.144C53.3205 85.992 53.5085 85.916 53.7325 85.916C53.9565 85.916 54.1405 85.988 54.2845 86.132C54.4365 86.268 54.5125 86.44 54.5125 86.648C54.5125 86.864 54.4365 87.048 54.2845 87.2C54.1405 87.344 53.9565 87.416 53.7325 87.416ZM62.508 86.096V95H61.404V93.992C61.148 94.344 60.824 94.612 60.432 94.796C60.04 94.98 59.608 95.072 59.136 95.072C58.52 95.072 57.968 94.936 57.48 94.664C56.992 94.392 56.608 94.012 56.328 93.524C56.056 93.028 55.92 92.46 55.92 91.82C55.92 91.18 56.056 90.616 56.328 90.128C56.608 89.64 56.992 89.26 57.48 88.988C57.968 88.716 58.52 88.58 59.136 88.58C59.592 88.58 60.012 88.668 60.396 88.844C60.78 89.012 61.1 89.264 61.356 89.6V86.096H62.508ZM59.232 94.064C59.632 94.064 59.996 93.972 60.324 93.788C60.652 93.596 60.908 93.332 61.092 92.996C61.276 92.652 61.368 92.26 61.368 91.82C61.368 91.38 61.276 90.992 61.092 90.656C60.908 90.312 60.652 90.048 60.324 89.864C59.996 89.68 59.632 89.588 59.232 89.588C58.824 89.588 58.456 89.68 58.128 89.864C57.808 90.048 57.552 90.312 57.36 90.656C57.176 90.992 57.084 91.38 57.084 91.82C57.084 92.26 57.176 92.652 57.36 92.996C57.552 93.332 57.808 93.596 58.128 93.788C58.456 93.972 58.824 94.064 59.232 94.064ZM67.0037 88.58C67.8837 88.58 68.5557 88.796 69.0197 89.228C69.4917 89.66 69.7277 90.304 69.7277 91.16V95H68.6357V94.16C68.4437 94.456 68.1677 94.684 67.8077 94.844C67.4557 94.996 67.0357 95.072 66.5477 95.072C65.8357 95.072 65.2637 94.9 64.8317 94.556C64.4077 94.212 64.1957 93.76 64.1957 93.2C64.1957 92.64 64.3997 92.192 64.8077 91.856C65.2157 91.512 65.8637 91.34 66.7517 91.34H68.5757V91.112C68.5757 90.616 68.4317 90.236 68.1437 89.972C67.8557 89.708 67.4317 89.576 66.8717 89.576C66.4957 89.576 66.1277 89.64 65.7677 89.768C65.4077 89.888 65.1037 90.052 64.8557 90.26L64.3757 89.396C64.7037 89.132 65.0957 88.932 65.5517 88.796C66.0077 88.652 66.4917 88.58 67.0037 88.58ZM66.7397 94.184C67.1797 94.184 67.5597 94.088 67.8797 93.896C68.1997 93.696 68.4317 93.416 68.5757 93.056V92.168H66.7997C65.8237 92.168 65.3357 92.496 65.3357 93.152C65.3357 93.472 65.4597 93.724 65.7077 93.908C65.9557 94.092 66.2997 94.184 66.7397 94.184ZM77.8947 86.096V95H76.7907V93.992C76.5347 94.344 76.2107 94.612 75.8187 94.796C75.4267 94.98 74.9947 95.072 74.5227 95.072C73.9067 95.072 73.3547 94.936 72.8667 94.664C72.3787 94.392 71.9947 94.012 71.7147 93.524C71.4427 93.028 71.3067 92.46 71.3067 91.82C71.3067 91.18 71.4427 90.616 71.7147 90.128C71.9947 89.64 72.3787 89.26 72.8667 88.988C73.3547 88.716 73.9067 88.58 74.5227 88.58C74.9787 88.58 75.3987 88.668 75.7827 88.844C76.1667 89.012 76.4867 89.264 76.7427 89.6V86.096H77.8947ZM74.6187 94.064C75.0187 94.064 75.3827 93.972 75.7107 93.788C76.0387 93.596 76.2947 93.332 76.4787 92.996C76.6627 92.652 76.7547 92.26 76.7547 91.82C76.7547 91.38 76.6627 90.992 76.4787 90.656C76.2947 90.312 76.0387 90.048 75.7107 89.864C75.3827 89.68 75.0187 89.588 74.6187 89.588C74.2107 89.588 73.8427 89.68 73.5147 89.864C73.1947 90.048 72.9387 90.312 72.7467 90.656C72.5627 90.992 72.4707 91.38 72.4707 91.82C72.4707 92.26 72.5627 92.652 72.7467 92.996C72.9387 93.332 73.1947 93.596 73.5147 93.788C73.8427 93.972 74.2107 94.064 74.6187 94.064ZM19.1609 108.072C18.5129 108.072 17.9329 107.932 17.4209 107.652C16.9169 107.372 16.5209 106.988 16.2329 106.5C15.9449 106.004 15.8009 105.444 15.8009 104.82C15.8009 104.196 15.9449 103.64 16.2329 103.152C16.5209 102.656 16.9169 102.272 17.4209 102C17.9329 101.72 18.5129 101.58 19.1609 101.58C19.7369 101.58 20.2489 101.696 20.6969 101.928C21.1529 102.16 21.5049 102.496 21.7529 102.936L20.8769 103.5C20.6769 103.196 20.4289 102.968 20.1329 102.816C19.8369 102.664 19.5089 102.588 19.1489 102.588C18.7329 102.588 18.3569 102.68 18.0209 102.864C17.6929 103.048 17.4329 103.312 17.2409 103.656C17.0569 103.992 16.9649 104.38 16.9649 104.82C16.9649 105.268 17.0569 105.664 17.2409 106.008C17.4329 106.344 17.6929 106.604 18.0209 106.788C18.3569 106.972 18.7329 107.064 19.1489 107.064C19.5089 107.064 19.8369 106.988 20.1329 106.836C20.4289 106.684 20.6769 106.456 20.8769 106.152L21.7529 106.704C21.5049 107.144 21.1529 107.484 20.6969 107.724C20.2489 107.956 19.7369 108.072 19.1609 108.072ZM23.2443 101.64H24.3963V108H23.2443V101.64ZM23.8203 100.416C23.5963 100.416 23.4083 100.344 23.2563 100.2C23.1123 100.056 23.0403 99.88 23.0403 99.672C23.0403 99.464 23.1123 99.288 23.2563 99.144C23.4083 98.992 23.5963 98.916 23.8203 98.916C24.0443 98.916 24.2283 98.988 24.3723 99.132C24.5243 99.268 24.6003 99.44 24.6003 99.648C24.6003 99.864 24.5243 100.048 24.3723 100.2C24.2283 100.344 24.0443 100.416 23.8203 100.416ZM32.5239 101.64V108H31.4319V107.04C31.1999 107.368 30.8919 107.624 30.5079 107.808C30.1319 107.984 29.7199 108.072 29.2719 108.072C28.4239 108.072 27.7559 107.84 27.2679 107.376C26.7799 106.904 26.5359 106.212 26.5359 105.3V101.64H27.6879V105.168C27.6879 105.784 27.8359 106.252 28.1319 106.572C28.4279 106.884 28.8519 107.04 29.4039 107.04C30.0119 107.04 30.4919 106.856 30.8439 106.488C31.1959 106.12 31.3719 105.6 31.3719 104.928V101.64H32.5239ZM40.717 99.096V108H39.613V106.992C39.357 107.344 39.033 107.612 38.641 107.796C38.249 107.98 37.817 108.072 37.345 108.072C36.729 108.072 36.177 107.936 35.689 107.664C35.201 107.392 34.817 107.012 34.537 106.524C34.265 106.028 34.129 105.46 34.129 104.82C34.129 104.18 34.265 103.616 34.537 103.128C34.817 102.64 35.201 102.26 35.689 101.988C36.177 101.716 36.729 101.58 37.345 101.58C37.801 101.58 38.221 101.668 38.605 101.844C38.989 102.012 39.309 102.264 39.565 102.6V99.096H40.717ZM37.441 107.064C37.841 107.064 38.205 106.972 38.533 106.788C38.861 106.596 39.117 106.332 39.301 105.996C39.485 105.652 39.577 105.26 39.577 104.82C39.577 104.38 39.485 103.992 39.301 103.656C39.117 103.312 38.861 103.048 38.533 102.864C38.205 102.68 37.841 102.588 37.441 102.588C37.033 102.588 36.665 102.68 36.337 102.864C36.017 103.048 35.761 103.312 35.569 103.656C35.385 103.992 35.293 104.38 35.293 104.82C35.293 105.26 35.385 105.652 35.569 105.996C35.761 106.332 36.017 106.596 36.337 106.788C36.665 106.972 37.033 107.064 37.441 107.064ZM45.2127 101.58C46.0927 101.58 46.7647 101.796 47.2287 102.228C47.7007 102.66 47.9367 103.304 47.9367 104.16V108H46.8447V107.16C46.6527 107.456 46.3767 107.684 46.0167 107.844C45.6647 107.996 45.2447 108.072 44.7567 108.072C44.0447 108.072 43.4727 107.9 43.0407 107.556C42.6167 107.212 42.4047 106.76 42.4047 106.2C42.4047 105.64 42.6087 105.192 43.0167 104.856C43.4247 104.512 44.0727 104.34 44.9607 104.34H46.7847V104.112C46.7847 103.616 46.6407 103.236 46.3527 102.972C46.0647 102.708 45.6407 102.576 45.0807 102.576C44.7047 102.576 44.3367 102.64 43.9767 102.768C43.6167 102.888 43.3127 103.052 43.0647 103.26L42.5847 102.396C42.9127 102.132 43.3047 101.932 43.7607 101.796C44.2167 101.652 44.7007 101.58 45.2127 101.58ZM44.9487 107.184C45.3887 107.184 45.7687 107.088 46.0887 106.896C46.4087 106.696 46.6407 106.416 46.7847 106.056V105.168H45.0087C44.0327 105.168 43.5447 105.496 43.5447 106.152C43.5447 106.472 43.6687 106.724 43.9167 106.908C44.1647 107.092 44.5087 107.184 44.9487 107.184ZM56.1037 99.096V108H54.9997V106.992C54.7437 107.344 54.4197 107.612 54.0277 107.796C53.6357 107.98 53.2037 108.072 52.7317 108.072C52.1157 108.072 51.5637 107.936 51.0757 107.664C50.5877 107.392 50.2037 107.012 49.9237 106.524C49.6517 106.028 49.5157 105.46 49.5157 104.82C49.5157 104.18 49.6517 103.616 49.9237 103.128C50.2037 102.64 50.5877 102.26 51.0757 101.988C51.5637 101.716 52.1157 101.58 52.7317 101.58C53.1877 101.58 53.6077 101.668 53.9917 101.844C54.3757 102.012 54.6957 102.264 54.9517 102.6V99.096H56.1037ZM52.8277 107.064C53.2277 107.064 53.5917 106.972 53.9197 106.788C54.2477 106.596 54.5037 106.332 54.6877 105.996C54.8717 105.652 54.9637 105.26 54.9637 104.82C54.9637 104.38 54.8717 103.992 54.6877 103.656C54.5037 103.312 54.2477 103.048 53.9197 102.864C53.5917 102.68 53.2277 102.588 52.8277 102.588C52.4197 102.588 52.0517 102.68 51.7237 102.864C51.4037 103.048 51.1477 103.312 50.9557 103.656C50.7717 103.992 50.6797 104.38 50.6797 104.82C50.6797 105.26 50.7717 105.652 50.9557 105.996C51.1477 106.332 51.4037 106.596 51.7237 106.788C52.0517 106.972 52.4197 107.064 52.8277 107.064ZM60.5994 101.58C61.4794 101.58 62.1514 101.796 62.6154 102.228C63.0874 102.66 63.3234 103.304 63.3234 104.16V108H62.2314V107.16C62.0394 107.456 61.7634 107.684 61.4034 107.844C61.0514 107.996 60.6314 108.072 60.1434 108.072C59.4314 108.072 58.8594 107.9 58.4274 107.556C58.0034 107.212 57.7914 106.76 57.7914 106.2C57.7914 105.64 57.9954 105.192 58.4034 104.856C58.8114 104.512 59.4594 104.34 60.3474 104.34H62.1714V104.112C62.1714 103.616 62.0274 103.236 61.7394 102.972C61.4514 102.708 61.0274 102.576 60.4674 102.576C60.0914 102.576 59.7234 102.64 59.3634 102.768C59.0034 102.888 58.6994 103.052 58.4514 103.26L57.9714 102.396C58.2994 102.132 58.6914 101.932 59.1474 101.796C59.6034 101.652 60.0874 101.58 60.5994 101.58ZM60.3354 107.184C60.7754 107.184 61.1554 107.088 61.4754 106.896C61.7954 106.696 62.0274 106.416 62.1714 106.056V105.168H60.3954C59.4194 105.168 58.9314 105.496 58.9314 106.152C58.9314 106.472 59.0554 106.724 59.3034 106.908C59.5514 107.092 59.8954 107.184 60.3354 107.184ZM68.8513 101.58C69.6593 101.58 70.2993 101.816 70.7713 102.288C71.2513 102.752 71.4913 103.436 71.4913 104.34V108H70.3393V104.472C70.3393 103.856 70.1913 103.392 69.8953 103.08C69.5993 102.768 69.1753 102.612 68.6233 102.612C67.9993 102.612 67.5073 102.796 67.1473 103.164C66.7873 103.524 66.6073 104.044 66.6073 104.724V108H65.4553V101.64H66.5593V102.6C66.7913 102.272 67.1033 102.02 67.4953 101.844C67.8953 101.668 68.3473 101.58 68.8513 101.58ZM75.9393 101.58C76.8193 101.58 77.4913 101.796 77.9553 102.228C78.4273 102.66 78.6633 103.304 78.6633 104.16V108H77.5713V107.16C77.3793 107.456 77.1033 107.684 76.7433 107.844C76.3913 107.996 75.9713 108.072 75.4833 108.072C74.7713 108.072 74.1993 107.9 73.7673 107.556C73.3433 107.212 73.1313 106.76 73.1313 106.2C73.1313 105.64 73.3353 105.192 73.7433 104.856C74.1513 104.512 74.7993 104.34 75.6873 104.34H77.5113V104.112C77.5113 103.616 77.3673 103.236 77.0793 102.972C76.7913 102.708 76.3673 102.576 75.8073 102.576C75.4313 102.576 75.0633 102.64 74.7033 102.768C74.3433 102.888 74.0393 103.052 73.7913 103.26L73.3113 102.396C73.6393 102.132 74.0313 101.932 74.4873 101.796C74.9433 101.652 75.4273 101.58 75.9393 101.58ZM75.6753 107.184C76.1153 107.184 76.4953 107.088 76.8153 106.896C77.1353 106.696 77.3673 106.416 77.5113 106.056V105.168H75.7353C74.7593 105.168 74.2713 105.496 74.2713 106.152C74.2713 106.472 74.3953 106.724 74.6433 106.908C74.8913 107.092 75.2353 107.184 75.6753 107.184Z" fill="black"/>
<defs>
<filter id="filter0_d" x="0" y="0" width="96" height="120" filterUnits="userSpaceOnUse" color-interpolation-filters="sRGB">
<feFlood flood-opacity="0" result="BackgroundImageFix"/>
<feColorMatrix in="SourceAlpha" type="matrix" values="0 0 0 0 0 0 0 0 0 0 0 0 0 0 0 0 0 0 127 0"/>
<feOffset/>
<feGaussianBlur stdDeviation="3"/>
<feColorMatrix type="matrix" values="0 0 0 0 0 0 0 0 0 0 0 0 0 0 0 0 0 0 0.25 0"/>
<feBlend mode="normal" in2="BackgroundImageFix" result="effect1_dropShadow"/>
<feBlend mode="normal" in="SourceGraphic" in2="effect1_dropShadow" result="shape"/>
</filter>
</defs>
</svg>
