<svg width="96" height="120" viewBox="0 0 96 120" fill="none" xmlns="http://www.w3.org/2000/svg">
<g filter="url(#filter0_d)">
<rect x="6" y="6" width="84" height="108" rx="10" fill="white"/>
</g>
<path d="M78.24 81.24H15.6C12.96 81.24 10.8 79.08 10.8 76.44V15.44C10.8 12.8 12.96 10.64 15.6 10.64H78.28C80.92 10.64 83.08 12.8 83.08 15.44V76.44C83.04 79.08 80.88 81.24 78.24 81.24Z" stroke="black" stroke-miterlimit="10"/>
<path d="M20.68 20.96L48 30.92C48 30.92 50.4 31.76 54.92 31.16C59.44 30.6 68.36 31.16 68.36 31.16C68.36 31.16 69.72 31.28 70.12 37.4V53.28L71.16 58.68C71.16 58.68 70.64 60.48 68.96 60.48C67.28 60.48 67.84 61.72 67.84 61.72L72.76 72.28C72.76 72.28 73.68 74.32 72.32 75.6C70.96 76.88 69.12 78.76 69.12 78.76C69.12 78.76 68.36 79.8 63.68 76.08C58.68 72.08 52.44 67.64 52.44 67.64C52.44 67.64 50.72 66.08 52.76 64.68C54.8 63.28 50.8 63.36 50.8 63.36C50.8 63.36 50.36 64.2 44.76 58.44C39.16 52.68 32.28 33.72 32.28 33.72C32.28 33.72 32.24 33 28.52 31.48C23.56 29.44 17.8 25.88 17.8 25.88C17.8 25.88 16.16 25.32 16.4 22.8C16.52 21.48 16.64 21.08 16.64 21.08C16.64 21.08 17.36 19.2 20.68 20.96Z" fill="#BD1218"/>
<path d="M29.7627 100.096C29.1307 100.096 28.5187 100 27.9267 99.808C27.3427 99.608 26.8827 99.352 26.5467 99.04L26.9907 98.104C27.3107 98.392 27.7187 98.628 28.2147 98.812C28.7187 98.988 29.2347 99.076 29.7627 99.076C30.4587 99.076 30.9787 98.96 31.3227 98.728C31.6667 98.488 31.8387 98.172 31.8387 97.78C31.8387 97.492 31.7427 97.26 31.5507 97.084C31.3667 96.9 31.1347 96.76 30.8547 96.664C30.5827 96.568 30.1947 96.46 29.6907 96.34C29.0587 96.188 28.5467 96.036 28.1547 95.884C27.7707 95.732 27.4387 95.5 27.1587 95.188C26.8867 94.868 26.7507 94.44 26.7507 93.904C26.7507 93.456 26.8667 93.052 27.0987 92.692C27.3387 92.332 27.6987 92.044 28.1787 91.828C28.6587 91.612 29.2547 91.504 29.9667 91.504C30.4627 91.504 30.9507 91.568 31.4307 91.696C31.9107 91.824 32.3227 92.008 32.6667 92.248L32.2707 93.208C31.9187 92.984 31.5427 92.816 31.1427 92.704C30.7427 92.584 30.3507 92.524 29.9667 92.524C29.2867 92.524 28.7747 92.648 28.4307 92.896C28.0947 93.144 27.9267 93.464 27.9267 93.856C27.9267 94.144 28.0227 94.38 28.2147 94.564C28.4067 94.74 28.6427 94.88 28.9227 94.984C29.2107 95.08 29.5987 95.184 30.0867 95.296C30.7187 95.448 31.2267 95.6 31.6107 95.752C31.9947 95.904 32.3227 96.136 32.5947 96.448C32.8747 96.76 33.0147 97.18 33.0147 97.708C33.0147 98.148 32.8947 98.552 32.6547 98.92C32.4147 99.28 32.0507 99.568 31.5627 99.784C31.0747 99.992 30.4747 100.096 29.7627 100.096ZM37.3238 100.072C36.6918 100.072 36.1238 99.932 35.6198 99.652C35.1158 99.372 34.7198 98.988 34.4318 98.5C34.1518 98.004 34.0118 97.444 34.0118 96.82C34.0118 96.196 34.1518 95.64 34.4318 95.152C34.7198 94.656 35.1158 94.272 35.6198 94C36.1238 93.72 36.6918 93.58 37.3238 93.58C37.9558 93.58 38.5198 93.72 39.0158 94C39.5198 94.272 39.9118 94.656 40.1918 95.152C40.4798 95.64 40.6238 96.196 40.6238 96.82C40.6238 97.444 40.4798 98.004 40.1918 98.5C39.9118 98.988 39.5198 99.372 39.0158 99.652C38.5198 99.932 37.9558 100.072 37.3238 100.072ZM37.3238 99.064C37.7318 99.064 38.0958 98.972 38.4158 98.788C38.7438 98.596 38.9998 98.332 39.1838 97.996C39.3678 97.652 39.4598 97.26 39.4598 96.82C39.4598 96.38 39.3678 95.992 39.1838 95.656C38.9998 95.312 38.7438 95.048 38.4158 94.864C38.0958 94.68 37.7318 94.588 37.3238 94.588C36.9158 94.588 36.5478 94.68 36.2198 94.864C35.8998 95.048 35.6438 95.312 35.4518 95.656C35.2678 95.992 35.1758 96.38 35.1758 96.82C35.1758 97.26 35.2678 97.652 35.4518 97.996C35.6438 98.332 35.8998 98.596 36.2198 98.788C36.5478 98.972 36.9158 99.064 37.3238 99.064ZM45.613 93.58C46.421 93.58 47.061 93.816 47.533 94.288C48.013 94.752 48.253 95.436 48.253 96.34V100H47.101V96.472C47.101 95.856 46.953 95.392 46.657 95.08C46.361 94.768 45.937 94.612 45.385 94.612C44.761 94.612 44.269 94.796 43.909 95.164C43.549 95.524 43.369 96.044 43.369 96.724V100H42.217V93.64H43.321V94.6C43.553 94.272 43.865 94.02 44.257 93.844C44.657 93.668 45.109 93.58 45.613 93.58ZM53.1441 100.072C52.5121 100.072 51.9441 99.932 51.4401 99.652C50.9361 99.372 50.5401 98.988 50.2521 98.5C49.9721 98.004 49.8321 97.444 49.8321 96.82C49.8321 96.196 49.9721 95.64 50.2521 95.152C50.5401 94.656 50.9361 94.272 51.4401 94C51.9441 93.72 52.5121 93.58 53.1441 93.58C53.7761 93.58 54.3401 93.72 54.8361 94C55.3401 94.272 55.7321 94.656 56.0121 95.152C56.3001 95.64 56.4441 96.196 56.4441 96.82C56.4441 97.444 56.3001 98.004 56.0121 98.5C55.7321 98.988 55.3401 99.372 54.8361 99.652C54.3401 99.932 53.7761 100.072 53.1441 100.072ZM53.1441 99.064C53.5521 99.064 53.9161 98.972 54.2361 98.788C54.5641 98.596 54.8201 98.332 55.0041 97.996C55.1881 97.652 55.2801 97.26 55.2801 96.82C55.2801 96.38 55.1881 95.992 55.0041 95.656C54.8201 95.312 54.5641 95.048 54.2361 94.864C53.9161 94.68 53.5521 94.588 53.1441 94.588C52.7361 94.588 52.3681 94.68 52.0401 94.864C51.7201 95.048 51.4641 95.312 51.2721 95.656C51.0881 95.992 50.9961 96.38 50.9961 96.82C50.9961 97.26 51.0881 97.652 51.2721 97.996C51.4641 98.332 51.7201 98.596 52.0401 98.788C52.3681 98.972 52.7361 99.064 53.1441 99.064ZM59.1413 94.708C59.3413 94.34 59.6373 94.06 60.0293 93.868C60.4213 93.676 60.8973 93.58 61.4573 93.58V94.696C61.3933 94.688 61.3053 94.684 61.1933 94.684C60.5693 94.684 60.0773 94.872 59.7173 95.248C59.3653 95.616 59.1893 96.144 59.1893 96.832V100H58.0373V93.64H59.1413V94.708ZM65.1814 93.58C66.0614 93.58 66.7334 93.796 67.1974 94.228C67.6694 94.66 67.9054 95.304 67.9054 96.16V100H66.8134V99.16C66.6214 99.456 66.3454 99.684 65.9854 99.844C65.6334 99.996 65.2134 100.072 64.7254 100.072C64.0134 100.072 63.4414 99.9 63.0094 99.556C62.5854 99.212 62.3734 98.76 62.3734 98.2C62.3734 97.64 62.5774 97.192 62.9854 96.856C63.3934 96.512 64.0414 96.34 64.9294 96.34H66.7534V96.112C66.7534 95.616 66.6094 95.236 66.3214 94.972C66.0334 94.708 65.6094 94.576 65.0494 94.576C64.6734 94.576 64.3054 94.64 63.9454 94.768C63.5854 94.888 63.2814 95.052 63.0334 95.26L62.5534 94.396C62.8814 94.132 63.2734 93.932 63.7294 93.796C64.1854 93.652 64.6694 93.58 65.1814 93.58ZM64.9174 99.184C65.3574 99.184 65.7374 99.088 66.0574 98.896C66.3774 98.696 66.6094 98.416 66.7534 98.056V97.168H64.9774C64.0014 97.168 63.5134 97.496 63.5134 98.152C63.5134 98.472 63.6374 98.724 63.8854 98.908C64.1334 99.092 64.4774 99.184 64.9174 99.184Z" fill="black"/>
<defs>
<filter id="filter0_d" x="0" y="0" width="96" height="120" filterUnits="userSpaceOnUse" color-interpolation-filters="sRGB">
<feFlood flood-opacity="0" result="BackgroundImageFix"/>
<feColorMatrix in="SourceAlpha" type="matrix" values="0 0 0 0 0 0 0 0 0 0 0 0 0 0 0 0 0 0 127 0"/>
<feOffset/>
<feGaussianBlur stdDeviation="3"/>
<feColorMatrix type="matrix" values="0 0 0 0 0 0 0 0 0 0 0 0 0 0 0 0 0 0 0.25 0"/>
<feBlend mode="normal" in2="BackgroundImageFix" result="effect1_dropShadow"/>
<feBlend mode="normal" in="SourceGraphic" in2="effect1_dropShadow" result="shape"/>
</filter>
</defs>
</svg>
