<svg width="96" height="120" viewBox="0 0 96 120" fill="none" xmlns="http://www.w3.org/2000/svg">
<g filter="url(#filter0_d)">
<rect x="6" y="6" width="84" height="108" rx="10" fill="white"/>
</g>
<path d="M79.24 83.2H16.56C13.92 83.2 11.76 81.04 11.76 78.4V17.36C11.76 14.72 13.92 12.56 16.56 12.56H79.24C81.88 12.56 84.04 14.72 84.04 17.36V78.4C84.04 81.04 81.88 83.2 79.24 83.2Z" stroke="black" stroke-miterlimit="10"/>
<path d="M79.68 46.92C79.48 46.6 79.12 46.2 78.4 45.84L75.32 31.4L75.24 31.12C75.24 31.12 74.92 30.32 73 30.16L72.92 30.12H19.2C17 30.12 17.32 31.92 17.32 31.92C17.32 31.92 17.32 53.2 17.32 55.48C17.32 57.76 19.2 58.04 19.2 58.04C19.2 58.04 19.88 58.04 21.12 58.04C21.52 55.4 23.84 53.32 26.72 53.32C29.6 53.32 31.96 55.36 32.32 58.04H50.24C50.6 55.36 52.96 53.32 55.84 53.32C58.72 53.32 61.08 55.36 61.44 58.04H64.8L64.76 57.96C71.96 57.96 77.36 58 78.32 58.04C81.6 58.2 81.68 56.72 81.68 56.72C81.52 51.72 80.68 48.72 79.68 46.92ZM28.04 41.64C28.04 42.76 27.6 43.2 26.6 43.2H21.24C20.24 43.2 19.88 42.72 19.88 41.6L19.84 37.08C19.84 35.96 20.24 35.72 21.24 35.72L26.64 35.76C27.64 35.76 28.08 35.92 28.08 37.04V41.64H28.04ZM38.8 41.64C38.8 42.76 38.36 43.2 37.36 43.2H31.96C30.96 43.2 30.6 42.72 30.6 41.6L30.56 37.08C30.56 35.96 30.96 35.72 31.96 35.72L37.36 35.76C38.36 35.76 38.8 35.92 38.8 37.04V41.64ZM49.52 41.64C49.52 42.76 49.08 43.2 48.08 43.2H42.68C41.68 43.2 41.32 42.72 41.32 41.6L41.28 37.08C41.28 35.96 41.68 35.72 42.68 35.72L48.08 35.76C49.08 35.76 49.52 35.92 49.52 37.04V41.64ZM60.96 41.64C60.96 42.76 60.52 43.2 59.52 43.2H54.12C53.12 43.2 52.76 42.72 52.76 41.6L52.72 37.08C52.72 35.96 53.12 35.72 54.12 35.72L59.52 35.76C60.52 35.76 60.96 35.92 60.96 37.04V41.64ZM73.92 52.32C73.92 55.64 73.52 56.96 72.64 56.96H67.8C66.92 56.96 66.56 55.48 66.56 52.16L66.52 38.72C66.52 35.4 66.88 34.64 67.8 34.64L72.64 34.76C73.52 34.76 73.92 35.24 73.92 38.56V52.32Z" fill="#BD1218"/>
<path d="M26.96 64.52C29.3679 64.52 31.32 62.5679 31.32 60.16C31.32 57.752 29.3679 55.8 26.96 55.8C24.552 55.8 22.6 57.752 22.6 60.16C22.6 62.5679 24.552 64.52 26.96 64.52Z" fill="#BD1218"/>
<path d="M56.16 64.52C58.5679 64.52 60.52 62.5679 60.52 60.16C60.52 57.752 58.5679 55.8 56.16 55.8C53.752 55.8 51.8 57.752 51.8 60.16C51.8 62.5679 53.752 64.52 56.16 64.52Z" fill="#BD1218"/>
<path d="M18.3928 87.644H15.5128V86.6H22.4608V87.644H19.5808V95H18.3928V87.644ZM24.5515 89.708C24.7515 89.34 25.0475 89.06 25.4395 88.868C25.8315 88.676 26.3075 88.58 26.8675 88.58V89.696C26.8035 89.688 26.7155 89.684 26.6035 89.684C25.9795 89.684 25.4875 89.872 25.1275 90.248C24.7755 90.616 24.5995 91.144 24.5995 91.832V95H23.4475V88.64H24.5515V89.708ZM30.5916 88.58C31.4716 88.58 32.1436 88.796 32.6076 89.228C33.0796 89.66 33.3156 90.304 33.3156 91.16V95H32.2236V94.16C32.0316 94.456 31.7556 94.684 31.3956 94.844C31.0436 94.996 30.6236 95.072 30.1356 95.072C29.4236 95.072 28.8516 94.9 28.4196 94.556C27.9956 94.212 27.7836 93.76 27.7836 93.2C27.7836 92.64 27.9876 92.192 28.3956 91.856C28.8036 91.512 29.4516 91.34 30.3396 91.34H32.1636V91.112C32.1636 90.616 32.0196 90.236 31.7316 89.972C31.4436 89.708 31.0196 89.576 30.4596 89.576C30.0836 89.576 29.7156 89.64 29.3556 89.768C28.9956 89.888 28.6916 90.052 28.4436 90.26L27.9636 89.396C28.2916 89.132 28.6836 88.932 29.1396 88.796C29.5956 88.652 30.0796 88.58 30.5916 88.58ZM30.3276 94.184C30.7676 94.184 31.1476 94.088 31.4676 93.896C31.7876 93.696 32.0196 93.416 32.1636 93.056V92.168H30.3876C29.4116 92.168 28.9236 92.496 28.9236 93.152C28.9236 93.472 29.0476 93.724 29.2956 93.908C29.5436 94.092 29.8876 94.184 30.3276 94.184ZM38.8435 88.58C39.6515 88.58 40.2915 88.816 40.7635 89.288C41.2435 89.752 41.4835 90.436 41.4835 91.34V95H40.3315V91.472C40.3315 90.856 40.1835 90.392 39.8875 90.08C39.5915 89.768 39.1675 89.612 38.6155 89.612C37.9915 89.612 37.4995 89.796 37.1395 90.164C36.7795 90.524 36.5995 91.044 36.5995 91.724V95H35.4475V88.64H36.5515V89.6C36.7835 89.272 37.0955 89.02 37.4875 88.844C37.8875 88.668 38.3395 88.58 38.8435 88.58ZM45.4394 95.072C44.9194 95.072 44.4194 95.004 43.9394 94.868C43.4594 94.724 43.0834 94.544 42.8114 94.328L43.2914 93.416C43.5714 93.616 43.9114 93.776 44.3114 93.896C44.7114 94.016 45.1154 94.076 45.5234 94.076C46.5314 94.076 47.0354 93.788 47.0354 93.212C47.0354 93.02 46.9674 92.868 46.8314 92.756C46.6954 92.644 46.5234 92.564 46.3154 92.516C46.1154 92.46 45.8274 92.4 45.4514 92.336C44.9394 92.256 44.5194 92.164 44.1914 92.06C43.8714 91.956 43.5954 91.78 43.3634 91.532C43.1314 91.284 43.0154 90.936 43.0154 90.488C43.0154 89.912 43.2554 89.452 43.7354 89.108C44.2154 88.756 44.8594 88.58 45.6674 88.58C46.0914 88.58 46.5154 88.632 46.9394 88.736C47.3634 88.84 47.7114 88.98 47.9834 89.156L47.4914 90.068C46.9714 89.732 46.3594 89.564 45.6554 89.564C45.1674 89.564 44.7954 89.644 44.5394 89.804C44.2834 89.964 44.1554 90.176 44.1554 90.44C44.1554 90.648 44.2274 90.812 44.3714 90.932C44.5154 91.052 44.6914 91.14 44.8994 91.196C45.1154 91.252 45.4154 91.316 45.7994 91.388C46.3114 91.476 46.7234 91.572 47.0354 91.676C47.3554 91.772 47.6274 91.94 47.8514 92.18C48.0754 92.42 48.1874 92.756 48.1874 93.188C48.1874 93.764 47.9394 94.224 47.4434 94.568C46.9554 94.904 46.2874 95.072 45.4394 95.072ZM52.9992 88.58C53.6152 88.58 54.1672 88.716 54.6552 88.988C55.1432 89.26 55.5232 89.64 55.7952 90.128C56.0752 90.616 56.2152 91.18 56.2152 91.82C56.2152 92.46 56.0752 93.028 55.7952 93.524C55.5232 94.012 55.1432 94.392 54.6552 94.664C54.1672 94.936 53.6152 95.072 52.9992 95.072C52.5432 95.072 52.1232 94.984 51.7392 94.808C51.3632 94.632 51.0432 94.376 50.7792 94.04V97.328H49.6272V88.64H50.7312V89.648C50.9872 89.296 51.3112 89.032 51.7032 88.856C52.0952 88.672 52.5272 88.58 52.9992 88.58ZM52.9032 94.064C53.3112 94.064 53.6752 93.972 53.9952 93.788C54.3232 93.596 54.5792 93.332 54.7632 92.996C54.9552 92.652 55.0512 92.26 55.0512 91.82C55.0512 91.38 54.9552 90.992 54.7632 90.656C54.5792 90.312 54.3232 90.048 53.9952 89.864C53.6752 89.68 53.3112 89.588 52.9032 89.588C52.5032 89.588 52.1392 89.684 51.8112 89.876C51.4912 90.06 51.2352 90.32 51.0432 90.656C50.8592 90.992 50.7672 91.38 50.7672 91.82C50.7672 92.26 50.8592 92.652 51.0432 92.996C51.2272 93.332 51.4832 93.596 51.8112 93.788C52.1392 93.972 52.5032 94.064 52.9032 94.064ZM60.5308 95.072C59.8988 95.072 59.3308 94.932 58.8268 94.652C58.3228 94.372 57.9268 93.988 57.6388 93.5C57.3588 93.004 57.2188 92.444 57.2188 91.82C57.2188 91.196 57.3588 90.64 57.6388 90.152C57.9268 89.656 58.3228 89.272 58.8268 89C59.3308 88.72 59.8988 88.58 60.5308 88.58C61.1628 88.58 61.7268 88.72 62.2228 89C62.7268 89.272 63.1188 89.656 63.3988 90.152C63.6868 90.64 63.8308 91.196 63.8308 91.82C63.8308 92.444 63.6868 93.004 63.3988 93.5C63.1188 93.988 62.7268 94.372 62.2228 94.652C61.7268 94.932 61.1628 95.072 60.5308 95.072ZM60.5308 94.064C60.9388 94.064 61.3028 93.972 61.6228 93.788C61.9508 93.596 62.2068 93.332 62.3908 92.996C62.5748 92.652 62.6668 92.26 62.6668 91.82C62.6668 91.38 62.5748 90.992 62.3908 90.656C62.2068 90.312 61.9508 90.048 61.6228 89.864C61.3028 89.68 60.9388 89.588 60.5308 89.588C60.1228 89.588 59.7548 89.68 59.4268 89.864C59.1068 90.048 58.8508 90.312 58.6588 90.656C58.4748 90.992 58.3828 91.38 58.3828 91.82C58.3828 92.26 58.4748 92.652 58.6588 92.996C58.8508 93.332 59.1068 93.596 59.4268 93.788C59.7548 93.972 60.1228 94.064 60.5308 94.064ZM66.528 89.708C66.728 89.34 67.024 89.06 67.416 88.868C67.808 88.676 68.284 88.58 68.844 88.58V89.696C68.78 89.688 68.692 89.684 68.58 89.684C67.956 89.684 67.464 89.872 67.104 90.248C66.752 90.616 66.576 91.144 66.576 91.832V95H65.424V88.64H66.528V89.708ZM74.0977 94.628C73.9297 94.772 73.7217 94.884 73.4737 94.964C73.2257 95.036 72.9697 95.072 72.7057 95.072C72.0657 95.072 71.5697 94.9 71.2177 94.556C70.8657 94.212 70.6897 93.72 70.6897 93.08V89.588H69.6097V88.64H70.6897V87.248H71.8417V88.64H73.6657V89.588H71.8417V93.032C71.8417 93.376 71.9257 93.64 72.0937 93.824C72.2697 94.008 72.5177 94.1 72.8377 94.1C73.1897 94.1 73.4897 94 73.7377 93.8L74.0977 94.628ZM81.0275 91.856C81.0275 91.944 81.0195 92.06 81.0035 92.204H75.8435C75.9155 92.764 76.1595 93.216 76.5755 93.56C76.9995 93.896 77.5235 94.064 78.1475 94.064C78.9075 94.064 79.5195 93.808 79.9835 93.296L80.6195 94.04C80.3315 94.376 79.9715 94.632 79.5395 94.808C79.1155 94.984 78.6395 95.072 78.1115 95.072C77.4395 95.072 76.8435 94.936 76.3235 94.664C75.8035 94.384 75.3995 93.996 75.1115 93.5C74.8315 93.004 74.6915 92.444 74.6915 91.82C74.6915 91.204 74.8275 90.648 75.0995 90.152C75.3795 89.656 75.7595 89.272 76.2395 89C76.7275 88.72 77.2755 88.58 77.8835 88.58C78.4915 88.58 79.0315 88.72 79.5035 89C79.9835 89.272 80.3555 89.656 80.6195 90.152C80.8915 90.648 81.0275 91.216 81.0275 91.856ZM77.8835 89.552C77.3315 89.552 76.8675 89.72 76.4915 90.056C76.1235 90.392 75.9075 90.832 75.8435 91.376H79.9235C79.8595 90.84 79.6395 90.404 79.2635 90.068C78.8955 89.724 78.4355 89.552 77.8835 89.552ZM30.1828 101.58C30.7988 101.58 31.3508 101.716 31.8388 101.988C32.3268 102.26 32.7068 102.64 32.9788 103.128C33.2588 103.616 33.3988 104.18 33.3988 104.82C33.3988 105.46 33.2588 106.028 32.9788 106.524C32.7068 107.012 32.3268 107.392 31.8388 107.664C31.3508 107.936 30.7988 108.072 30.1828 108.072C29.7268 108.072 29.3068 107.984 28.9228 107.808C28.5468 107.632 28.2268 107.376 27.9628 107.04V110.328H26.8108V101.64H27.9148V102.648C28.1708 102.296 28.4948 102.032 28.8867 101.856C29.2788 101.672 29.7108 101.58 30.1828 101.58ZM30.0868 107.064C30.4948 107.064 30.8588 106.972 31.1788 106.788C31.5068 106.596 31.7628 106.332 31.9468 105.996C32.1388 105.652 32.2348 105.26 32.2348 104.82C32.2348 104.38 32.1388 103.992 31.9468 103.656C31.7628 103.312 31.5068 103.048 31.1788 102.864C30.8588 102.68 30.4948 102.588 30.0868 102.588C29.6868 102.588 29.3228 102.684 28.9948 102.876C28.6748 103.06 28.4188 103.32 28.2268 103.656C28.0428 103.992 27.9508 104.38 27.9508 104.82C27.9508 105.26 28.0428 105.652 28.2268 105.996C28.4108 106.332 28.6668 106.596 28.9948 106.788C29.3228 106.972 29.6868 107.064 30.0868 107.064ZM40.9184 101.64V108H39.8264V107.04C39.5944 107.368 39.2864 107.624 38.9024 107.808C38.5264 107.984 38.1144 108.072 37.6664 108.072C36.8184 108.072 36.1504 107.84 35.6624 107.376C35.1744 106.904 34.9304 106.212 34.9304 105.3V101.64H36.0824V105.168C36.0824 105.784 36.2304 106.252 36.5264 106.572C36.8224 106.884 37.2464 107.04 37.7984 107.04C38.4064 107.04 38.8864 106.856 39.2384 106.488C39.5904 106.12 39.7664 105.6 39.7664 104.928V101.64H40.9184ZM38.6624 99.156H40.1264L38.1104 100.716H37.0304L38.6624 99.156ZM46.4835 101.58C47.0995 101.58 47.6515 101.716 48.1395 101.988C48.6275 102.26 49.0075 102.64 49.2795 103.128C49.5595 103.616 49.6995 104.18 49.6995 104.82C49.6995 105.46 49.5595 106.028 49.2795 106.524C49.0075 107.012 48.6275 107.392 48.1395 107.664C47.6515 107.936 47.0995 108.072 46.4835 108.072C46.0115 108.072 45.5795 107.98 45.1875 107.796C44.7955 107.612 44.4715 107.344 44.2155 106.992V108H43.1115V99.096H44.2635V102.6C44.5195 102.264 44.8395 102.012 45.2235 101.844C45.6075 101.668 46.0275 101.58 46.4835 101.58ZM46.3875 107.064C46.7955 107.064 47.1595 106.972 47.4795 106.788C47.8075 106.596 48.0635 106.332 48.2475 105.996C48.4395 105.652 48.5355 105.26 48.5355 104.82C48.5355 104.38 48.4395 103.992 48.2475 103.656C48.0635 103.312 47.8075 103.048 47.4795 102.864C47.1595 102.68 46.7955 102.588 46.3875 102.588C45.9875 102.588 45.6235 102.68 45.2955 102.864C44.9675 103.048 44.7115 103.312 44.5275 103.656C44.3435 103.992 44.2515 104.38 44.2515 104.82C44.2515 105.26 44.3435 105.652 44.5275 105.996C44.7115 106.332 44.9675 106.596 45.2955 106.788C45.6235 106.972 45.9875 107.064 46.3875 107.064ZM51.2912 99.096H52.4432V108H51.2912V99.096ZM54.6428 101.64H55.7948V108H54.6428V101.64ZM55.2188 100.416C54.9948 100.416 54.8068 100.344 54.6548 100.2C54.5108 100.056 54.4388 99.88 54.4388 99.672C54.4388 99.464 54.5108 99.288 54.6548 99.144C54.8068 98.992 54.9948 98.916 55.2188 98.916C55.4428 98.916 55.6268 98.988 55.7708 99.132C55.9228 99.268 55.9988 99.44 55.9988 99.648C55.9988 99.864 55.9228 100.048 55.7708 100.2C55.6268 100.344 55.4428 100.416 55.2188 100.416ZM60.7663 108.072C60.1183 108.072 59.5383 107.932 59.0263 107.652C58.5223 107.372 58.1263 106.988 57.8383 106.5C57.5503 106.004 57.4063 105.444 57.4063 104.82C57.4063 104.196 57.5503 103.64 57.8383 103.152C58.1263 102.656 58.5223 102.272 59.0263 102C59.5383 101.72 60.1183 101.58 60.7663 101.58C61.3423 101.58 61.8543 101.696 62.3023 101.928C62.7583 102.16 63.1103 102.496 63.3583 102.936L62.4823 103.5C62.2823 103.196 62.0343 102.968 61.7383 102.816C61.4423 102.664 61.1143 102.588 60.7543 102.588C60.3383 102.588 59.9623 102.68 59.6263 102.864C59.2983 103.048 59.0383 103.312 58.8463 103.656C58.6623 103.992 58.5703 104.38 58.5703 104.82C58.5703 105.268 58.6623 105.664 58.8463 106.008C59.0383 106.344 59.2983 106.604 59.6263 106.788C59.9623 106.972 60.3383 107.064 60.7543 107.064C61.1143 107.064 61.4423 106.988 61.7383 106.836C62.0343 106.684 62.2823 106.456 62.4823 106.152L63.3583 106.704C63.1103 107.144 62.7583 107.484 62.3023 107.724C61.8543 107.956 61.3423 108.072 60.7663 108.072ZM67.4801 108.072C66.8481 108.072 66.2801 107.932 65.7761 107.652C65.2721 107.372 64.8761 106.988 64.5881 106.5C64.3081 106.004 64.1681 105.444 64.1681 104.82C64.1681 104.196 64.3081 103.64 64.5881 103.152C64.8761 102.656 65.2721 102.272 65.7761 102C66.2801 101.72 66.8481 101.58 67.4801 101.58C68.1121 101.58 68.6761 101.72 69.1721 102C69.6761 102.272 70.0681 102.656 70.3481 103.152C70.6361 103.64 70.7801 104.196 70.7801 104.82C70.7801 105.444 70.6361 106.004 70.3481 106.5C70.0681 106.988 69.6761 107.372 69.1721 107.652C68.6761 107.932 68.1121 108.072 67.4801 108.072ZM67.4801 107.064C67.8881 107.064 68.2521 106.972 68.5721 106.788C68.9001 106.596 69.1561 106.332 69.3401 105.996C69.5241 105.652 69.6161 105.26 69.6161 104.82C69.6161 104.38 69.5241 103.992 69.3401 103.656C69.1561 103.312 68.9001 103.048 68.5721 102.864C68.2521 102.68 67.8881 102.588 67.4801 102.588C67.0721 102.588 66.7041 102.68 66.3761 102.864C66.0561 103.048 65.8001 103.312 65.6081 103.656C65.4241 103.992 65.3321 104.38 65.3321 104.82C65.3321 105.26 65.4241 105.652 65.6081 105.996C65.8001 106.332 66.0561 106.596 66.3761 106.788C66.7041 106.972 67.0721 107.064 67.4801 107.064Z" fill="black"/>
<defs>
<filter id="filter0_d" x="0" y="0" width="96" height="120" filterUnits="userSpaceOnUse" color-interpolation-filters="sRGB">
<feFlood flood-opacity="0" result="BackgroundImageFix"/>
<feColorMatrix in="SourceAlpha" type="matrix" values="0 0 0 0 0 0 0 0 0 0 0 0 0 0 0 0 0 0 127 0"/>
<feOffset/>
<feGaussianBlur stdDeviation="3"/>
<feColorMatrix type="matrix" values="0 0 0 0 0 0 0 0 0 0 0 0 0 0 0 0 0 0 0.25 0"/>
<feBlend mode="normal" in2="BackgroundImageFix" result="effect1_dropShadow"/>
<feBlend mode="normal" in="SourceGraphic" in2="effect1_dropShadow" result="shape"/>
</filter>
</defs>
</svg>
