<svg width="96" height="120" viewBox="0 0 96 120" fill="none" xmlns="http://www.w3.org/2000/svg">
<g filter="url(#filter0_d)">
<rect x="6" y="6" width="84" height="108" rx="10" fill="white"/>
</g>
<path d="M79.24 83.24H16.76C14.12 83.24 11.96 81.08 11.96 78.44V17.56C11.96 14.92 14.12 12.76 16.76 12.76H79.28C81.92 12.76 84.08 14.92 84.08 17.56V78.44C84.04 81.08 81.88 83.24 79.24 83.24Z" stroke="black" stroke-miterlimit="10"/>
<path d="M53.9999 65.84H35.4399C32.7999 65.84 30.6399 63.68 30.6399 61.04V41.4C30.6399 38.76 32.7999 36.6 35.4399 36.6H53.9999C56.6399 36.6 58.7999 38.76 58.7999 41.4V61.04C58.7999 63.68 56.6399 65.84 53.9999 65.84Z" stroke="#EA5B13" stroke-width="2" stroke-miterlimit="10"/>
<path d="M29.6399 44.96C29.6399 44.96 36.4399 52.88 34.3999 64.6C34.3999 64.6 34.2399 64.96 36.0399 65C37.8399 65.04 42.1599 65 42.1599 65C42.1599 65 42.9599 65 43.5199 63.56C44.0799 62.16 74.2799 22.24 80.4799 21.08C80.4799 21.08 81.7999 19.96 79.9599 19.96C78.1199 19.96 71.8799 20 71.8799 20C71.8799 20 69.6799 20.12 68.5199 21.16C67.3599 22.2 50.7199 35.16 41.8799 51.72C41.8799 51.72 40.7999 45.32 38.9599 43.48C38.9599 43.48 38.6799 42.56 36.3999 43.16C34.1199 43.76 30.1599 44.32 30.1599 44.32C30.1599 44.32 29.5599 44.4 29.6399 44.96Z" fill="#BD1218"/>
<path d="M37.1537 87.6L33.4697 96H32.2817L28.5857 87.6H29.8817L32.9057 94.5L35.9537 87.6H37.1537ZM40.3004 96.072C39.6684 96.072 39.1004 95.932 38.5964 95.652C38.0924 95.372 37.6964 94.988 37.4084 94.5C37.1284 94.004 36.9884 93.444 36.9884 92.82C36.9884 92.196 37.1284 91.64 37.4084 91.152C37.6964 90.656 38.0924 90.272 38.5964 90C39.1004 89.72 39.6684 89.58 40.3004 89.58C40.9324 89.58 41.4964 89.72 41.9924 90C42.4964 90.272 42.8884 90.656 43.1684 91.152C43.4564 91.64 43.6004 92.196 43.6004 92.82C43.6004 93.444 43.4564 94.004 43.1684 94.5C42.8884 94.988 42.4964 95.372 41.9924 95.652C41.4964 95.932 40.9324 96.072 40.3004 96.072ZM40.3004 95.064C40.7084 95.064 41.0724 94.972 41.3924 94.788C41.7204 94.596 41.9764 94.332 42.1604 93.996C42.3444 93.652 42.4364 93.26 42.4364 92.82C42.4364 92.38 42.3444 91.992 42.1604 91.656C41.9764 91.312 41.7204 91.048 41.3924 90.864C41.0724 90.68 40.7084 90.588 40.3004 90.588C39.8924 90.588 39.5244 90.68 39.1964 90.864C38.8764 91.048 38.6204 91.312 38.4284 91.656C38.2444 91.992 38.1524 92.38 38.1524 92.82C38.1524 93.26 38.2444 93.652 38.4284 93.996C38.6204 94.332 38.8764 94.596 39.1964 94.788C39.5244 94.972 39.8924 95.064 40.3004 95.064ZM48.7696 95.628C48.6016 95.772 48.3936 95.884 48.1456 95.964C47.8976 96.036 47.6416 96.072 47.3776 96.072C46.7376 96.072 46.2416 95.9 45.8896 95.556C45.5376 95.212 45.3616 94.72 45.3616 94.08V90.588H44.2816V89.64H45.3616V88.248H46.5136V89.64H48.3376V90.588H46.5136V94.032C46.5136 94.376 46.5976 94.64 46.7656 94.824C46.9416 95.008 47.1896 95.1 47.5096 95.1C47.8616 95.1 48.1616 95 48.4096 94.8L48.7696 95.628ZM52.6754 96.072C52.0434 96.072 51.4754 95.932 50.9714 95.652C50.4674 95.372 50.0714 94.988 49.7834 94.5C49.5034 94.004 49.3634 93.444 49.3634 92.82C49.3634 92.196 49.5034 91.64 49.7834 91.152C50.0714 90.656 50.4674 90.272 50.9714 90C51.4754 89.72 52.0434 89.58 52.6754 89.58C53.3074 89.58 53.8714 89.72 54.3674 90C54.8714 90.272 55.2634 90.656 55.5434 91.152C55.8314 91.64 55.9754 92.196 55.9754 92.82C55.9754 93.444 55.8314 94.004 55.5434 94.5C55.2634 94.988 54.8714 95.372 54.3674 95.652C53.8714 95.932 53.3074 96.072 52.6754 96.072ZM52.6754 95.064C53.0834 95.064 53.4474 94.972 53.7674 94.788C54.0954 94.596 54.3514 94.332 54.5354 93.996C54.7194 93.652 54.8114 93.26 54.8114 92.82C54.8114 92.38 54.7194 91.992 54.5354 91.656C54.3514 91.312 54.0954 91.048 53.7674 90.864C53.4474 90.68 53.0834 90.588 52.6754 90.588C52.2674 90.588 51.8994 90.68 51.5714 90.864C51.2514 91.048 50.9954 91.312 50.8034 91.656C50.6194 91.992 50.5274 92.38 50.5274 92.82C50.5274 93.26 50.6194 93.652 50.8034 93.996C50.9954 94.332 51.2514 94.596 51.5714 94.788C51.8994 94.972 52.2674 95.064 52.6754 95.064ZM66.4192 89.64L63.3352 96.636C63.0632 97.284 62.7432 97.74 62.3752 98.004C62.0152 98.268 61.5792 98.4 61.0672 98.4C60.7552 98.4 60.4512 98.348 60.1552 98.244C59.8672 98.148 59.6272 98.004 59.4352 97.812L59.9272 96.948C60.2552 97.26 60.6352 97.416 61.0672 97.416C61.3472 97.416 61.5792 97.34 61.7632 97.188C61.9552 97.044 62.1272 96.792 62.2792 96.432L62.4832 95.988L59.6752 89.64H60.8752L63.0952 94.728L65.2912 89.64H66.4192ZM18.5275 100.096V109H17.4235V107.992C17.1675 108.344 16.8435 108.612 16.4515 108.796C16.0595 108.98 15.6275 109.072 15.1555 109.072C14.5395 109.072 13.9875 108.936 13.4995 108.664C13.0115 108.392 12.6275 108.012 12.3475 107.524C12.0755 107.028 11.9395 106.46 11.9395 105.82C11.9395 105.18 12.0755 104.616 12.3475 104.128C12.6275 103.64 13.0115 103.26 13.4995 102.988C13.9875 102.716 14.5395 102.58 15.1555 102.58C15.6115 102.58 16.0315 102.668 16.4155 102.844C16.7995 103.012 17.1195 103.264 17.3755 103.6V100.096H18.5275ZM15.2515 108.064C15.6515 108.064 16.0155 107.972 16.3435 107.788C16.6715 107.596 16.9275 107.332 17.1115 106.996C17.2955 106.652 17.3875 106.26 17.3875 105.82C17.3875 105.38 17.2955 104.992 17.1115 104.656C16.9275 104.312 16.6715 104.048 16.3435 103.864C16.0155 103.68 15.6515 103.588 15.2515 103.588C14.8435 103.588 14.4755 103.68 14.1475 103.864C13.8275 104.048 13.5715 104.312 13.3795 104.656C13.1955 104.992 13.1035 105.38 13.1035 105.82C13.1035 106.26 13.1955 106.652 13.3795 106.996C13.5715 107.332 13.8275 107.596 14.1475 107.788C14.4755 107.972 14.8435 108.064 15.2515 108.064ZM26.4552 105.856C26.4552 105.944 26.4472 106.06 26.4312 106.204H21.2712C21.3432 106.764 21.5872 107.216 22.0032 107.56C22.4272 107.896 22.9512 108.064 23.5752 108.064C24.3352 108.064 24.9472 107.808 25.4112 107.296L26.0472 108.04C25.7592 108.376 25.3992 108.632 24.9672 108.808C24.5432 108.984 24.0672 109.072 23.5392 109.072C22.8672 109.072 22.2712 108.936 21.7512 108.664C21.2312 108.384 20.8272 107.996 20.5392 107.5C20.2592 107.004 20.1192 106.444 20.1192 105.82C20.1192 105.204 20.2552 104.648 20.5272 104.152C20.8072 103.656 21.1872 103.272 21.6672 103C22.1552 102.72 22.7032 102.58 23.3112 102.58C23.9192 102.58 24.4592 102.72 24.9312 103C25.4112 103.272 25.7832 103.656 26.0472 104.152C26.3192 104.648 26.4552 105.216 26.4552 105.856ZM23.3112 103.552C22.7592 103.552 22.2952 103.72 21.9192 104.056C21.5512 104.392 21.3352 104.832 21.2712 105.376H25.3512C25.2872 104.84 25.0672 104.404 24.6912 104.068C24.3232 103.724 23.8632 103.552 23.3112 103.552ZM36.0109 102.58C36.8109 102.58 37.4429 102.812 37.9069 103.276C38.3789 103.74 38.6149 104.428 38.6149 105.34V109H37.4629V105.472C37.4629 104.856 37.3189 104.392 37.0309 104.08C36.7509 103.768 36.3469 103.612 35.8189 103.612C35.2349 103.612 34.7709 103.796 34.4269 104.164C34.0829 104.524 33.9109 105.044 33.9109 105.724V109H32.7589V105.472C32.7589 104.856 32.6149 104.392 32.3269 104.08C32.0469 103.768 31.6429 103.612 31.1149 103.612C30.5309 103.612 30.0669 103.796 29.7229 104.164C29.3789 104.524 29.2069 105.044 29.2069 105.724V109H28.0549V102.64H29.1589V103.588C29.3909 103.26 29.6949 103.012 30.0709 102.844C30.4469 102.668 30.8749 102.58 31.3549 102.58C31.8509 102.58 32.2909 102.68 32.6749 102.88C33.0589 103.08 33.3549 103.372 33.5629 103.756C33.8029 103.388 34.1349 103.1 34.5589 102.892C34.9909 102.684 35.4749 102.58 36.0109 102.58ZM43.4937 109.072C42.8617 109.072 42.2937 108.932 41.7897 108.652C41.2857 108.372 40.8897 107.988 40.6017 107.5C40.3217 107.004 40.1817 106.444 40.1817 105.82C40.1817 105.196 40.3217 104.64 40.6017 104.152C40.8897 103.656 41.2857 103.272 41.7897 103C42.2937 102.72 42.8617 102.58 43.4937 102.58C44.1257 102.58 44.6897 102.72 45.1857 103C45.6897 103.272 46.0817 103.656 46.3617 104.152C46.6497 104.64 46.7937 105.196 46.7937 105.82C46.7937 106.444 46.6497 107.004 46.3617 107.5C46.0817 107.988 45.6897 108.372 45.1857 108.652C44.6897 108.932 44.1257 109.072 43.4937 109.072ZM43.4937 108.064C43.9017 108.064 44.2657 107.972 44.5857 107.788C44.9137 107.596 45.1697 107.332 45.3537 106.996C45.5377 106.652 45.6297 106.26 45.6297 105.82C45.6297 105.38 45.5377 104.992 45.3537 104.656C45.1697 104.312 44.9137 104.048 44.5857 103.864C44.2657 103.68 43.9017 103.588 43.4937 103.588C43.0857 103.588 42.7177 103.68 42.3897 103.864C42.0697 104.048 41.8137 104.312 41.6217 104.656C41.4377 104.992 41.3457 105.38 41.3457 105.82C41.3457 106.26 41.4377 106.652 41.6217 106.996C41.8137 107.332 42.0697 107.596 42.3897 107.788C42.7177 107.972 43.0857 108.064 43.4937 108.064ZM51.1589 109.072C50.5109 109.072 49.9309 108.932 49.4189 108.652C48.9149 108.372 48.5189 107.988 48.2309 107.5C47.9429 107.004 47.7989 106.444 47.7989 105.82C47.7989 105.196 47.9429 104.64 48.2309 104.152C48.5189 103.656 48.9149 103.272 49.4189 103C49.9309 102.72 50.5109 102.58 51.1589 102.58C51.7349 102.58 52.2469 102.696 52.6949 102.928C53.1509 103.16 53.5029 103.496 53.7509 103.936L52.8749 104.5C52.6749 104.196 52.4269 103.968 52.1309 103.816C51.8349 103.664 51.5069 103.588 51.1469 103.588C50.7309 103.588 50.3549 103.68 50.0189 103.864C49.6909 104.048 49.4309 104.312 49.2389 104.656C49.0549 104.992 48.9629 105.38 48.9629 105.82C48.9629 106.268 49.0549 106.664 49.2389 107.008C49.4309 107.344 49.6909 107.604 50.0189 107.788C50.3549 107.972 50.7309 108.064 51.1469 108.064C51.5069 108.064 51.8349 107.988 52.1309 107.836C52.4269 107.684 52.6749 107.456 52.8749 107.152L53.7509 107.704C53.5029 108.144 53.1509 108.484 52.6949 108.724C52.2469 108.956 51.7349 109.072 51.1589 109.072ZM56.3464 103.708C56.5464 103.34 56.8424 103.06 57.2344 102.868C57.6264 102.676 58.1024 102.58 58.6624 102.58V103.696C58.5984 103.688 58.5104 103.684 58.3984 103.684C57.7744 103.684 57.2824 103.872 56.9224 104.248C56.5704 104.616 56.3944 105.144 56.3944 105.832V109H55.2424V102.64H56.3464V103.708ZM62.3865 102.58C63.2665 102.58 63.9385 102.796 64.4025 103.228C64.8745 103.66 65.1105 104.304 65.1105 105.16V109H64.0185V108.16C63.8265 108.456 63.5505 108.684 63.1905 108.844C62.8385 108.996 62.4185 109.072 61.9305 109.072C61.2185 109.072 60.6465 108.9 60.2145 108.556C59.7905 108.212 59.5785 107.76 59.5785 107.2C59.5785 106.64 59.7825 106.192 60.1905 105.856C60.5985 105.512 61.2465 105.34 62.1345 105.34H63.9585V105.112C63.9585 104.616 63.8145 104.236 63.5265 103.972C63.2385 103.708 62.8145 103.576 62.2545 103.576C61.8785 103.576 61.5105 103.64 61.1505 103.768C60.7905 103.888 60.4865 104.052 60.2385 104.26L59.7585 103.396C60.0865 103.132 60.4785 102.932 60.9345 102.796C61.3905 102.652 61.8745 102.58 62.3865 102.58ZM62.1225 108.184C62.5625 108.184 62.9425 108.088 63.2625 107.896C63.5825 107.696 63.8145 107.416 63.9585 107.056V106.168H62.1825C61.2065 106.168 60.7185 106.496 60.7185 107.152C60.7185 107.472 60.8425 107.724 61.0905 107.908C61.3385 108.092 61.6825 108.184 62.1225 108.184ZM70.0495 109.072C69.4015 109.072 68.8215 108.932 68.3095 108.652C67.8055 108.372 67.4095 107.988 67.1215 107.5C66.8335 107.004 66.6895 106.444 66.6895 105.82C66.6895 105.196 66.8335 104.64 67.1215 104.152C67.4095 103.656 67.8055 103.272 68.3095 103C68.8215 102.72 69.4015 102.58 70.0495 102.58C70.6255 102.58 71.1375 102.696 71.5855 102.928C72.0415 103.16 72.3935 103.496 72.6415 103.936L71.7655 104.5C71.5655 104.196 71.3175 103.968 71.0215 103.816C70.7255 103.664 70.3975 103.588 70.0375 103.588C69.6215 103.588 69.2455 103.68 68.9095 103.864C68.5815 104.048 68.3215 104.312 68.1295 104.656C67.9455 104.992 67.8535 105.38 67.8535 105.82C67.8535 106.268 67.9455 106.664 68.1295 107.008C68.3215 107.344 68.5815 107.604 68.9095 107.788C69.2455 107.972 69.6215 108.064 70.0375 108.064C70.3975 108.064 70.7255 107.988 71.0215 107.836C71.3175 107.684 71.5655 107.456 71.7655 107.152L72.6415 107.704C72.3935 108.144 72.0415 108.484 71.5855 108.724C71.1375 108.956 70.6255 109.072 70.0495 109.072ZM74.133 102.64H75.285V109H74.133V102.64ZM74.709 101.416C74.485 101.416 74.297 101.344 74.145 101.2C74.001 101.056 73.929 100.88 73.929 100.672C73.929 100.464 74.001 100.288 74.145 100.144C74.297 99.992 74.485 99.916 74.709 99.916C74.933 99.916 75.117 99.988 75.261 100.132C75.413 100.268 75.489 100.44 75.489 100.648C75.489 100.864 75.413 101.048 75.261 101.2C75.117 101.344 74.933 101.416 74.709 101.416ZM79.8006 102.58C80.6806 102.58 81.3526 102.796 81.8166 103.228C82.2886 103.66 82.5246 104.304 82.5246 105.16V109H81.4326V108.16C81.2406 108.456 80.9646 108.684 80.6046 108.844C80.2526 108.996 79.8326 109.072 79.3446 109.072C78.6326 109.072 78.0606 108.9 77.6286 108.556C77.2046 108.212 76.9926 107.76 76.9926 107.2C76.9926 106.64 77.1966 106.192 77.6046 105.856C78.0126 105.512 78.6606 105.34 79.5486 105.34H81.3726V105.112C81.3726 104.616 81.2286 104.236 80.9406 103.972C80.6526 103.708 80.2286 103.576 79.6686 103.576C79.2926 103.576 78.9246 103.64 78.5646 103.768C78.2046 103.888 77.9006 104.052 77.6526 104.26L77.1726 103.396C77.5006 103.132 77.8926 102.932 78.3486 102.796C78.8046 102.652 79.2886 102.58 79.8006 102.58ZM79.5366 108.184C79.9766 108.184 80.3566 108.088 80.6766 107.896C80.9966 107.696 81.2286 107.416 81.3726 107.056V106.168H79.5966C78.6206 106.168 78.1326 106.496 78.1326 107.152C78.1326 107.472 78.2566 107.724 78.5046 107.908C78.7526 108.092 79.0966 108.184 79.5366 108.184Z" fill="black"/>
<defs>
<filter id="filter0_d" x="0" y="0" width="96" height="120" filterUnits="userSpaceOnUse" color-interpolation-filters="sRGB">
<feFlood flood-opacity="0" result="BackgroundImageFix"/>
<feColorMatrix in="SourceAlpha" type="matrix" values="0 0 0 0 0 0 0 0 0 0 0 0 0 0 0 0 0 0 127 0"/>
<feOffset/>
<feGaussianBlur stdDeviation="3"/>
<feColorMatrix type="matrix" values="0 0 0 0 0 0 0 0 0 0 0 0 0 0 0 0 0 0 0.25 0"/>
<feBlend mode="normal" in2="BackgroundImageFix" result="effect1_dropShadow"/>
<feBlend mode="normal" in="SourceGraphic" in2="effect1_dropShadow" result="shape"/>
</filter>
</defs>
</svg>
